<?xml version="1.0" encoding="UTF-8" standalone="no"?>
<!-- Created with Inkscape (http://www.inkscape.org/) -->

<svg
   width="266.27426mm"
   height="79.147453mm"
   viewBox="0 0 266.27426 79.147453"
   version="1.1"
   id="svg13681"
   inkscape:version="1.2.2 (732a01da63, 2022-12-09)"
   sodipodi:docname="paper_fig_1_2.svg"
   xmlns:inkscape="http://www.inkscape.org/namespaces/inkscape"
   xmlns:sodipodi="http://sodipodi.sourceforge.net/DTD/sodipodi-0.dtd"
   xmlns="http://www.w3.org/2000/svg"
   xmlns:svg="http://www.w3.org/2000/svg">
  <sodipodi:namedview
     id="namedview13683"
     pagecolor="#ffffff"
     bordercolor="#000000"
     borderopacity="0.25"
     inkscape:showpageshadow="2"
     inkscape:pageopacity="0.0"
     inkscape:pagecheckerboard="0"
     inkscape:deskcolor="#d1d1d1"
     inkscape:document-units="mm"
     showgrid="false"
     inkscape:zoom="0.73851712"
     inkscape:cx="436.68588"
     inkscape:cy="121.86583"
     inkscape:window-width="1920"
     inkscape:window-height="1009"
     inkscape:window-x="-8"
     inkscape:window-y="-8"
     inkscape:window-maximized="1"
     inkscape:current-layer="layer1" />
  <defs
     id="defs13678">
    <clipPath
       clipPathUnits="userSpaceOnUse"
       id="clipPath8615">
      <path
         d="m 266,0 h 75 v 75 h -75 z"
         id="path8613" />
    </clipPath>
    <clipPath
       clipPathUnits="userSpaceOnUse"
       id="clipPath8621">
      <path
         d="m 308.121,-12.086 32.027,63.731 -41.199,22.687 -32.027,-63.73 z"
         id="path8619" />
    </clipPath>
    <clipPath
       clipPathUnits="userSpaceOnUse"
       id="clipPath8631">
      <path
         d="M 0,0 H 755 V 247 H 0 Z"
         id="path8629" />
    </clipPath>
    <clipPath
       clipPathUnits="userSpaceOnUse"
       id="clipPath8809">
      <path
         d="M 25,0 H 141 V 132 H 25 Z"
         id="path8807" />
    </clipPath>
    <clipPath
       clipPathUnits="userSpaceOnUse"
       id="clipPath8815">
      <path
         d="M 90.422,-12.527 140.633,93.738 76.047,131.57 25.832,25.305 Z"
         id="path8813" />
    </clipPath>
    <clipPath
       clipPathUnits="userSpaceOnUse"
       id="clipPath8825">
      <path
         d="M 0,0 H 755 V 247 H 0 Z"
         id="path8823" />
    </clipPath>
  </defs>
  <g
     inkscape:label="Ebene 1"
     inkscape:groupmode="layer"
     id="layer1"
     transform="translate(10.252926,-116.27066)">
    <g
       id="g8565"
       transform="matrix(0.35277776,0,0,0.35277778,-10.252926,115.11849)">
      <g
         id="g8567">
        <path
           d="m 361.676,91.816 c 0,14.516 -12.328,26.286 -27.535,26.286 -7.305,0 -14.309,-2.77 -19.473,-7.7 -5.164,-4.929 -8.063,-11.617 -8.063,-18.586 0,-6.972 2.899,-13.66 8.063,-18.586 5.164,-4.929 12.168,-7.699 19.473,-7.699 15.207,0 27.535,11.766 27.535,26.285 z"
           style="fill:none;stroke:#9f4c4c;stroke-width:5.10236;stroke-linecap:butt;stroke-linejoin:miter;stroke-miterlimit:4;stroke-dasharray:none;stroke-opacity:1"
           id="path8569" />
      </g>
      <g
         id="g8571">
        <path
           d="m 494.355,91.816 c 0,6.969 -2.902,13.657 -8.066,18.586 -5.164,4.93 -12.168,7.7 -19.473,7.7 -15.207,0 -27.535,-11.77 -27.535,-26.286 0,-14.519 12.328,-26.285 27.535,-26.285 7.305,0 14.309,2.77 19.473,7.699 5.164,4.926 8.066,11.614 8.066,18.586 z"
           style="fill:none;stroke:#9f4c4c;stroke-width:5.10236;stroke-linecap:butt;stroke-linejoin:miter;stroke-miterlimit:4;stroke-dasharray:none;stroke-opacity:1"
           id="path8573" />
      </g>
      <g
         id="g8575">
        <path
           d="m 425.512,183.188 c 0,6.972 -2.899,13.656 -8.063,18.585 -5.164,4.93 -12.168,7.7 -19.472,7.7 -7.305,0 -14.309,-2.77 -19.473,-7.7 -5.164,-4.929 -8.063,-11.613 -8.063,-18.585 0,-6.973 2.899,-13.657 8.063,-18.586 5.164,-4.93 12.168,-7.7 19.473,-7.7 15.207,0 27.535,11.77 27.535,26.286 z"
           style="fill:none;stroke:#9f4c4c;stroke-width:5.10236;stroke-linecap:butt;stroke-linejoin:miter;stroke-miterlimit:4;stroke-dasharray:none;stroke-opacity:1"
           id="path8577" />
      </g>
      <path
         d="m 337.281,94.188 2,0.25 c -0.316,1.167 -0.898,2.07 -1.75,2.714 -0.855,0.645 -1.941,0.969 -3.265,0.969 -1.672,0 -2.996,-0.512 -3.977,-1.535 -0.973,-1.031 -1.461,-2.477 -1.461,-4.332 0,-1.918 0.496,-3.406 1.485,-4.469 0.988,-1.058 2.269,-1.59 3.843,-1.59 1.528,0 2.774,0.52 3.739,1.559 0.968,1.039 1.449,2.5 1.449,4.383 0,0.117 -0.004,0.289 -0.008,0.515 h -8.508 c 0.07,1.254 0.426,2.215 1.063,2.879 0.636,0.668 1.433,1 2.382,1 0.711,0 1.317,-0.187 1.817,-0.558 0.5,-0.371 0.898,-0.969 1.191,-1.785 z m -6.347,-3.125 h 6.371 c -0.086,-0.958 -0.328,-1.68 -0.731,-2.161 -0.617,-0.742 -1.414,-1.117 -2.394,-1.117 -0.891,0 -1.637,0.301 -2.246,0.895 -0.602,0.593 -0.934,1.386 -1,2.383 z"
         style="fill:#53bf40;fill-opacity:1;fill-rule:nonzero;stroke:none"
         id="path8579" />
      <path
         d="M 463.457,101.891 V 86.109 h 1.762 v 1.485 c 0.414,-0.582 0.883,-1.012 1.406,-1.301 0.523,-0.293 1.156,-0.441 1.902,-0.441 0.973,0 1.832,0.253 2.578,0.753 0.743,0.5 1.305,1.211 1.688,2.125 0.379,0.911 0.566,1.911 0.566,3 0,1.168 -0.211,2.219 -0.632,3.157 -0.414,0.933 -1.024,1.648 -1.825,2.148 -0.797,0.496 -1.632,0.742 -2.515,0.742 -0.645,0 -1.223,-0.136 -1.739,-0.41 -0.511,-0.269 -0.929,-0.613 -1.257,-1.031 v 5.555 z m 1.75,-10.012 c 0,1.469 0.297,2.555 0.891,3.254 0.593,0.703 1.316,1.055 2.16,1.055 0.859,0 1.594,-0.364 2.203,-1.086 0.613,-0.731 0.922,-1.86 0.922,-3.383 0,-1.453 -0.301,-2.543 -0.903,-3.266 -0.593,-0.723 -1.304,-1.086 -2.136,-1.086 -0.824,0 -1.555,0.387 -2.192,1.16 -0.629,0.766 -0.945,1.883 -0.945,3.352 z"
         style="fill:#4040bf;fill-opacity:1;fill-rule:nonzero;stroke:none"
         id="path8581" />
      <path
         d="m 392.867,185.934 1.914,-0.301 c 0.106,0.765 0.403,1.351 0.891,1.762 0.496,0.406 1.183,0.609 2.062,0.609 0.887,0 1.547,-0.176 1.977,-0.535 0.43,-0.367 0.644,-0.793 0.644,-1.278 0,-0.437 -0.191,-0.781 -0.57,-1.031 -0.265,-0.172 -0.922,-0.39 -1.976,-0.656 -1.418,-0.359 -2.403,-0.668 -2.954,-0.926 -0.542,-0.262 -0.96,-0.625 -1.246,-1.082 -0.277,-0.465 -0.418,-0.98 -0.418,-1.539 0,-0.508 0.114,-0.977 0.344,-1.406 0.235,-0.438 0.555,-0.797 0.957,-1.086 0.301,-0.219 0.707,-0.406 1.223,-0.559 0.523,-0.156 1.082,-0.234 1.676,-0.234 0.894,0 1.679,0.129 2.351,0.387 0.68,0.257 1.184,0.609 1.504,1.05 0.324,0.438 0.547,1.028 0.668,1.762 l -1.891,0.258 c -0.085,-0.586 -0.335,-1.043 -0.753,-1.375 -0.407,-0.328 -0.989,-0.492 -1.739,-0.492 -0.89,0 -1.523,0.148 -1.902,0.441 -0.379,0.293 -0.57,0.637 -0.57,1.031 0,0.25 0.078,0.477 0.238,0.676 0.156,0.207 0.402,0.379 0.742,0.516 0.191,0.07 0.762,0.234 1.707,0.492 1.367,0.367 2.32,0.668 2.856,0.902 0.546,0.231 0.972,0.567 1.281,1.012 0.305,0.445 0.461,0.996 0.461,1.652 0,0.645 -0.192,1.254 -0.571,1.829 -0.371,0.566 -0.914,1.007 -1.621,1.32 -0.711,0.308 -1.511,0.461 -2.406,0.461 -1.484,0 -2.613,-0.305 -3.394,-0.922 -0.774,-0.617 -1.27,-1.527 -1.485,-2.738 z"
         style="fill:#56246d;fill-opacity:1;fill-rule:nonzero;stroke:none"
         id="path8583" />
      <path
         d="m 361.676,126.863 -6.028,4.731 -6.031,4.734 -1.082,-7.59 -1.086,-7.586 z"
         style="fill:#000000;fill-opacity:1;fill-rule:nonzero;stroke:none"
         id="path8585" />
      <path
         d="m 360.027,151.27 6.032,-4.735 6.027,-4.73 1.086,7.586 1.082,7.589 z"
         style="fill:#000000;fill-opacity:1;fill-rule:nonzero;stroke:none"
         id="path8587" />
      <g
         id="g8589">
        <path
           d="m 352.914,129.367 15.024,18.774"
           style="fill:none;stroke:#000000;stroke-width:3.40158;stroke-linecap:butt;stroke-linejoin:miter;stroke-miterlimit:4;stroke-dasharray:none;stroke-opacity:1"
           id="path8591" />
      </g>
      <path
         d="m 448.992,138.699 -10.875,-10.804 14.797,-4.016 z"
         style="fill:#000000;fill-opacity:1;fill-rule:nonzero;stroke:none"
         id="path8593" />
      <path
         d="m 424.566,140.059 5.434,5.402 5.438,5.402 -7.399,2.008 -7.394,2.004 1.96,-7.406 z"
         style="fill:#000000;fill-opacity:1;fill-rule:nonzero;stroke:none"
         id="path8595" />
      <g
         id="g8597"
         transform="matrix(0.123572,1,-1,0.123572,0,0)">
        <path
           d="m 182.568,-422.873 14.904,18.634"
           style="fill:none;stroke:#000000;stroke-width:3.3759;stroke-linecap:butt;stroke-linejoin:miter;stroke-miterlimit:4;stroke-dasharray:none;stroke-opacity:1"
           id="path8599" />
      </g>
      <path
         d="m 412.422,97.094 -0.336,-7.66 -0.332,-7.657 6.801,3.543 6.797,3.539 z"
         style="fill:#000000;fill-opacity:1;fill-rule:nonzero;stroke:none"
         id="path8601" />
      <path
         d="m 393.547,81.531 0.664,15.313 -6.797,-3.539 -6.801,-3.539 6.469,-4.118 z"
         style="fill:#000000;fill-opacity:1;fill-rule:nonzero;stroke:none"
         id="path8603" />
      <g
         id="g8605"
         transform="matrix(-0.717077,1,-1,-0.717077,0,0)">
        <path
           d="m -138.307,-316.316 12.207,15.259"
           style="fill:none;stroke:#000000;stroke-width:2.76432;stroke-linecap:butt;stroke-linejoin:miter;stroke-miterlimit:4;stroke-dasharray:none;stroke-opacity:1"
           id="path8607" />
      </g>
    </g>
    <g
       id="g8609"
       transform="matrix(0.35277776,0,0,0.35277778,-10.252926,115.11849)">
      <g
         id="g8611"
         clip-path="url(#clipPath8615)">
        <g
           id="g8617"
           clip-path="url(#clipPath8621)">
          <g
             id="g8623">
            <g
               id="g8625">
              <g
                 id="g8627"
                 clip-path="url(#clipPath8631)">
                <g
                   id="g8633">
                  <g
                     id="g8635"
                     transform="matrix(0.502566,1,0.983518,-0.541625,0,0)">
                    <path
                       d="m 127.702,229.264 0.523,-0.001 0.028,0.001 0.081,-0.001 0.029,0.001 0.081,-0.002 0.028,0.002 h 0.055 l 0.028,10e-4 h 0.054 l 0.028,0.002 0.027,-0.002 0.028,0.002 0.055,-0.001 0.028,0.002 0.026,-0.002 0.057,0.003 0.026,-0.001 0.056,0.003 0.027,-0.002 0.028,0.002 h 0.023 l 0.029,0.001 h 0.054 l 0.057,0.003 h 0.054 l 0.027,-0.002 0.056,0.003 h 0.055 l 0.026,-0.001 0.111,0.002 0.026,-10e-4 0.196,-0.001 0.026,-0.001 h 0.055 l 0.028,0.001 h 0.054 l 0.027,-0.002 0.028,0.002 0.027,-0.002 0.028,0.002 0.053,-0.003 0.028,0.001 0.056,-0.005 0.028,0.002 0.081,-0.002 0.027,-0.001 0.084,-0.004 0.026,-0.001 h 0.055 l 0.026,-0.002 0.084,-0.003 0.027,-0.002 0.084,-0.003 0.027,-0.002 0.082,0.001 0.053,-0.003 0.03,-0.003 0.028,0.002 0.081,-0.002 0.027,-0.002 0.084,-0.003 0.028,0.001 0.026,-0.001 0.028,0.001 0.027,-0.001 0.192,0.001 0.026,-0.002 0.029,0.002 h 0.054 l 0.028,10e-4 0.083,0.002 0.025,0.003 0.085,0.004 0.083,0.002 0.025,0.003 0.084,0.004 0.025,0.003 0.085,0.005 0.025,0.003 0.058,0.006 0.025,0.003 0.084,0.004 0.025,0.003 0.083,0.01 0.029,0.001 0.081,0.006 0.028,0.002 0.055,0.007 0.027,-10e-4 0.029,0.004 h 0.055 l 0.025,0.003 0.113,0.006 0.08,0.003 0.028,0.002 0.135,-0.002 h 0.032 l 0.053,-0.003 h 0.054 l 0.03,-0.004 0.026,-0.001 0.056,-0.005 0.053,-0.003 0.028,-0.007 0.026,-0.001 0.056,-0.005 0.028,-0.006 0.027,-0.002 0.082,-0.014 0.029,-0.003 0.083,-0.014 0.024,-0.005 0.028,-0.006 0.03,-0.004 0.028,-0.006 0.052,-0.011 0.056,-0.012 0.082,-0.015 0.028,-0.006 0.053,-0.011 0.029,-0.003 0.028,-0.006 0.054,-0.008 0.028,-0.007 0.027,-0.001 0.027,-0.006 0.03,-0.004 0.025,-0.004 0.029,-0.004 0.027,-0.001 0.028,-0.006 0.053,-0.004 0.057,-0.001 0.053,-0.004 h 0.055 l 0.083,0.002 0.028,10e-4 0.025,0.003 0.058,0.006 0.025,0.003 0.03,0.005 0.052,0.009 0.029,0.005 0.027,0.006 0.029,0.009 0.025,0.003 0.028,0.01 0.027,0.006 0.029,0.009 0.026,0.006 0.057,0.019 0.026,0.011 0.057,0.018 0.025,0.011 0.028,0.009 0.026,0.011 0.058,0.022 0.051,0.022 0.03,0.012 0.026,0.011 0.03,0.012 0.025,0.011 0.029,0.009 0.027,0.014 0.028,0.01 0.081,0.034 0.029,0.009 0.025,0.011 0.086,0.028 0.025,0.011 0.027,0.006 0.028,0.009 0.054,0.012 0.03,0.005 0.053,0.012 0.028,0.002 0.027,0.006 0.027,-0.002 0.084,0.005 0.027,-0.002 0.056,-0.004 0.026,-0.002 0.056,-0.013 0.026,-0.001 0.026,-0.01 0.058,-0.017 0.026,-0.009 0.029,-0.011 0.024,-0.013 0.03,-0.011 0.055,-0.028 0.056,-0.033 0.026,-0.017 0.027,-0.014 0.028,-0.022 0.029,-0.018 0.025,-0.018 0.029,-0.018 0.164,-0.132 0.083,-0.07 0.027,-0.022 0.083,-0.07 0.024,-0.02 0.031,-0.024 0.056,-0.04 0.024,-0.02 0.029,-0.019 0.027,-0.022 0.029,-0.019 0.026,-0.017 0.029,-0.019 0.025,-0.017 0.056,-0.028 0.029,-0.011 0.024,-0.013 0.029,-0.01 0.027,-0.01 0.083,-0.019 0.027,-0.001 0.029,-0.004 0.025,0.004 0.057,0.003 0.053,0.012 0.057,0.018 0.025,0.011 0.028,0.014 0.028,0.017 0.027,0.014 0.11,0.087 0.026,0.027 0.031,0.028 0.055,0.059 0.025,0.031 0.029,0.032 0.027,0.035 0.084,0.112 0.054,0.079 0.027,0.042 0.025,0.039 0.031,0.043 0.054,0.084 0.028,0.045 0.053,0.084 0.029,0.045 0.08,0.126 0.029,0.041 0.027,0.042 0.03,0.04 0.025,0.039 0.056,0.075 0.052,0.068 0.057,0.062 0.026,0.027 0.03,0.025 0.026,0.026 0.027,0.022 0.029,0.017 0.025,0.018 0.028,0.014 0.03,0.013 0.025,0.011 0.03,0.004 0.025,0.003 0.027,-0.001 0.029,-0.003 0.056,-0.013 0.055,-0.028 0.026,-0.017 0.03,-0.024 0.026,-0.025 0.028,-0.026 0.025,-0.033 0.029,-0.034 0.026,-0.038 0.03,-0.039 0.052,-0.09 0.056,-0.1 0.082,-0.173 0.029,-0.062 0.081,-0.197 0.028,-0.07 0.027,-0.073 0.028,-0.07 0.027,-0.073 0.028,-0.078 0.027,-0.074 0.028,-0.077 0.055,-0.152 0.025,-0.076 0.028,-0.078 0.03,-0.075 0.025,-0.076 0.03,-0.075 0.026,-0.073 0.056,-0.143 0.081,-0.197 0.029,-0.062 0.027,-0.058 0.026,-0.053 0.029,-0.054 0.028,-0.05 0.026,-0.045 0.028,-0.043 0.026,-0.037 0.029,-0.034 0.027,-0.03 0.054,-0.044 0.026,-0.017 0.029,-0.011 0.028,-0.006 0.028,0.001 0.025,0.003 0.03,0.013 0.028,0.014 0.027,0.022 0.026,0.026 0.028,0.03 0.028,0.037 0.026,0.042 0.03,0.048 0.024,0.051 0.029,0.061 0.026,0.062 0.029,0.069 0.028,0.073 0.027,0.078 0.027,0.085 0.057,0.178 0.025,0.098 0.028,0.101 0.029,0.104 0.026,0.106 0.026,0.114 0.03,0.112 0.028,0.116 0.053,0.243 0.057,0.249 0.025,0.126 0.056,0.254 0.054,0.258 0.055,0.254 0.028,0.124 0.054,0.243 0.03,0.12 0.028,0.117 0.026,0.113 0.028,0.109 0.026,0.106 0.027,0.101 0.029,0.097 0.027,0.093 0.027,0.086 0.028,0.081 0.025,0.074 0.029,0.069 0.026,0.062 0.056,0.103 0.027,0.042 0.029,0.032 0.028,0.03 0.027,0.014 0.025,0.011 0.028,10e-4 0.028,-0.006 0.029,-0.019 0.027,-0.022 0.025,-0.032 0.028,-0.043 0.028,-0.049 0.027,-0.058 0.029,-0.07 0.027,-0.073 0.027,-0.086 0.028,-0.094 0.027,-0.101 0.03,-0.11 0.027,-0.117 0.026,-0.125 0.029,-0.134 0.026,-0.14 0.027,-0.145 0.029,-0.154 0.027,-0.161 0.027,-0.165 0.03,-0.17 0.025,-0.176 0.027,-0.18 0.029,-0.186 0.027,-0.188 0.028,-0.193 0.053,-0.393 0.028,-0.201 0.026,-0.196 0.027,-0.204 0.029,-0.198 0.026,-0.204 0.03,-0.198 0.025,-0.199 0.056,-0.386 0.054,-0.377 0.03,-0.182 0.026,-0.176 0.029,-0.17 0.028,-0.165 0.023,-0.159 0.028,-0.15 0.029,-0.141 0.029,-0.134 0.026,-0.125 0.027,-0.117 0.029,-0.106 0.053,-0.182 0.028,-0.078 0.029,-0.062 0.026,-0.053 0.027,-0.038 0.027,-0.029 0.03,-0.016 0.027,-0.002 0.025,0.011 0.027,0.022 0.028,0.037 0.027,0.05 0.029,0.061 0.027,0.078 0.028,0.088 0.028,0.101 0.028,0.117 0.025,0.126 0.029,0.14 0.028,0.153 0.027,0.165 0.029,0.176 0.025,0.19 0.029,0.199 0.027,0.208 0.026,0.221 0.027,0.229 0.031,0.238 0.026,0.25 0.028,0.255 0.025,0.261 0.029,0.271 0.027,0.273 0.028,0.283 0.026,0.285 0.027,0.288 0.03,0.294 0.026,0.293 0.027,0.296 0.03,0.299 0.082,0.887 0.025,0.293 0.028,0.288 0.028,0.283 0.027,0.28 0.026,0.273 0.031,0.266 0.028,0.26 0.025,0.249 0.03,0.243 0.026,0.229 0.026,0.221 0.027,0.208 0.029,0.196 0.029,0.184 0.024,0.167 0.029,0.155 0.026,0.142 0.028,0.124 0.028,0.109 0.027,0.094 0.028,0.073 0.029,0.061 0.025,0.038 0.029,0.025 0.027,0.006 0.026,-0.017 0.03,-0.031 0.028,-0.05 0.026,-0.073 0.028,-0.086 0.027,-0.109 0.029,-0.126 0.027,-0.145 0.025,-0.163 0.027,-0.181 0.03,-0.198 0.027,-0.216 0.027,-0.232 0.027,-0.253 0.028,-0.265 0.028,-0.28 0.028,-0.296 0.054,-0.635 0.026,-0.335 0.029,-0.349 0.027,-0.355 0.029,-0.372 0.027,-0.375 0.028,-0.388 0.025,-0.394 0.026,-0.399 0.031,-0.405 0.026,-0.406 0.027,-0.411 0.029,-0.416 0.025,-0.414 0.031,-0.413 0.027,-0.411 0.024,-0.41 0.031,-0.405 0.026,-0.398 0.028,-0.396 0.026,-0.386 0.03,-0.377 0.027,-0.368 0.025,-0.358 0.028,-0.344 0.028,-0.332 0.026,-0.319 0.029,-0.301 0.027,-0.288 0.027,-0.268 0.027,-0.252 0.027,-0.232 0.029,-0.213 0.028,-0.193 0.025,-0.172 0.028,-0.149 0.029,-0.126 0.026,-0.105 0.029,-0.082 0.026,-0.053 0.029,-0.035 0.027,-0.006 0.026,0.019 0.03,0.04 0.026,0.07 0.027,0.093 0.03,0.12 0.026,0.142 0.028,0.168 0.026,0.198 0.027,0.216 0.028,0.24 0.028,0.268 0.027,0.288 0.028,0.311 0.027,0.332 0.027,0.351 0.027,0.376 0.028,0.39 0.028,0.411 0.026,0.432 0.029,0.442 0.028,0.462 0.026,0.475 0.029,0.486 0.028,0.498 0.026,0.511 0.027,0.518 0.027,0.526 0.031,0.533 0.024,0.536 0.112,2.167 0.026,0.539 0.029,0.537 0.027,0.526 0.026,0.523 0.028,0.514 0.026,0.503 0.029,0.493 0.029,0.478 0.025,0.464 0.027,0.447 0.029,0.43 0.028,0.411 0.026,0.395 0.029,0.371 0.028,0.347 0.027,0.324 0.028,0.303 0.028,0.276 0.024,0.246 0.029,0.219 0.026,0.193 0.027,0.165 0.03,0.136 0.025,0.102 0.028,0.074 0.029,0.04 0.028,0.014 0.027,-0.022 0.027,-0.058 0.027,-0.081 0.029,-0.118 0.026,-0.148 0.03,-0.182 0.026,-0.212 0.027,-0.245 0.027,-0.275 0.028,-0.301 0.028,-0.331 0.026,-0.363 0.026,-0.391 0.029,-0.416 0.026,-0.442 0.028,-0.468 0.029,-0.495 0.028,-0.511 0.026,-0.537 0.027,-0.554 0.029,-0.575 0.028,-0.59 0.027,-0.606 0.027,-0.621 0.027,-0.629 0.028,-0.646 0.028,-0.65 0.025,-0.66 0.031,-0.664 0.025,-0.668 0.084,-2.008 0.026,-0.665 0.027,-0.657 0.027,-0.65 0.028,-0.641 0.029,-0.631 0.026,-0.617 0.029,-0.602 0.027,-0.586 0.027,-0.57 0.028,-0.547 0.029,-0.523 0.024,-0.504 0.029,-0.48 0.026,-0.45 0.028,-0.424 0.028,-0.395 0.028,-0.368 0.027,-0.331 0.027,-0.304 0.028,-0.265 0.028,-0.237 0.027,-0.196 0.028,-0.165 0.026,-0.125 0.029,-0.09 0.026,-0.053 0.028,-0.014 0.029,0.025 0.025,0.062 0.028,0.101 0.029,0.14 0.027,0.173 0.027,0.216 0.028,0.253 0.027,0.288 0.027,0.323 0.027,0.36 0.029,0.394 0.025,0.428 0.029,0.458 0.029,0.493 0.026,0.524 0.028,0.549 0.028,0.578 0.027,0.605 0.026,0.626 0.027,0.654 0.028,0.673 0.056,1.401 0.026,0.726 0.029,0.739 0.028,0.752 0.026,0.762 0.029,0.767 0.025,0.774 0.029,0.775 0.028,0.781 0.026,0.776 0.03,0.776 0.026,0.769 0.027,0.764 0.028,0.753 0.028,0.744 0.026,0.725 0.027,0.713 0.029,0.696 0.026,0.675 0.029,0.652 0.025,0.631 0.03,0.604 0.025,0.579 0.029,0.545 0.027,0.518 0.028,0.491 0.029,0.45 0.027,0.418 0.026,0.38 0.028,0.347 0.026,0.309 0.027,0.264 0.029,0.228 0.028,0.188 0.027,0.145 0.028,0.101 0.027,0.057 0.027,0.022 0.029,-0.026 0.025,-0.069 0.029,-0.114 0.026,-0.152 0.027,-0.197 0.029,-0.241 0.028,-0.28 0.026,-0.32 0.027,-0.362 0.029,-0.401 0.029,-0.436 0.024,-0.476 0.031,-0.513 0.025,-0.545 0.027,-0.577 0.027,-0.614 0.029,-0.638 0.028,-0.67 0.025,-0.696 0.028,-0.721 0.028,-0.741 0.027,-0.765 0.03,-0.782 0.027,-0.8 0.029,-0.813 0.025,-0.827 0.027,-0.836 0.029,-0.841 0.027,-0.852 0.025,-0.847 0.029,-0.856 0.028,-0.849 0.026,-0.847 0.029,-0.841 0.026,-0.832 0.028,-0.82 0.029,-0.805 0.028,-0.793 0.025,-0.775 0.029,-0.754 0.026,-0.732 0.026,-0.708 0.029,-0.683 0.029,-0.654 0.025,-0.624 0.028,-0.59 0.027,-0.562 0.029,-0.524 0.026,-0.486 0.029,-0.451 0.028,-0.411 0.028,-0.373 0.025,-0.33 0.029,-0.285 0.028,-0.244 0.028,-0.201 0.025,-0.156 0.029,-0.111 0.028,-0.065 0.027,-0.022 0.026,0.027 0.029,0.068 0.025,0.118 0.03,0.164 0.025,0.205 0.031,0.251 0.025,0.293 0.055,0.714 0.03,0.422 0.026,0.459 0.027,0.499 0.028,0.534 0.027,0.569 0.028,0.606 0.025,0.639 0.03,0.667 0.026,0.698 0.029,0.724 0.027,0.749 0.027,0.772 0.029,0.796 0.024,0.809 0.027,0.829 0.03,0.842 0.027,0.856 0.026,0.865 0.03,0.87 0.052,1.753 0.03,0.878 0.025,0.877 0.03,0.87 0.027,0.864 0.028,0.852 0.027,0.844 0.025,0.825 0.029,0.811 0.027,0.793 0.026,0.769 0.03,0.747 0.027,0.721 0.027,0.698 0.028,0.665 0.028,0.636 0.026,0.603 0.03,0.568 0.026,0.531 0.026,0.495 0.029,0.458 0.026,0.416 0.029,0.378 0.027,0.332 0.029,0.291 0.026,0.249 0.026,0.201 0.029,0.16 0.027,0.109 0.027,0.07 0.027,0.022 0.027,-0.022 0.029,-0.07 0.028,-0.114 0.026,-0.16 0.027,-0.205 0.03,-0.246 0.026,-0.291 0.026,-0.335 0.029,-0.372 0.028,-0.416 0.028,-0.454 0.027,-0.491 0.027,-0.526 0.028,-0.562 0.026,-0.594 0.028,-0.626 0.027,-0.657 0.029,-0.682 0.025,-0.712 0.028,-0.733 0.028,-0.757 0.03,-0.774 0.025,-0.791 0.03,-0.81 0.026,-0.823 0.026,-0.832 0.029,-0.841 0.026,-0.847 0.029,-0.849 0.025,-0.855 0.057,-1.697 0.027,-0.844 0.028,-0.836 0.026,-0.824 0.029,-0.813 0.026,-0.796 0.03,-0.781 0.024,-0.763 0.028,-0.742 0.029,-0.717 0.027,-0.693 0.028,-0.67 0.026,-0.637 0.026,-0.609 0.03,-0.579 0.027,-0.542 0.029,-0.508 0.025,-0.473 0.03,-0.436 0.026,-0.399 0.029,-0.357 0.024,-0.317 0.029,-0.277 0.028,-0.237 0.028,-0.193 0.027,-0.153 0.029,-0.106 0.027,-0.065 0.027,-0.022 0.027,0.022 0.026,0.062 0.029,0.104 0.027,0.149 0.027,0.189 0.028,0.232 0.028,0.268 0.028,0.311 0.025,0.349 0.028,0.383 0.029,0.422 0.028,0.454 0.025,0.487 0.029,0.522 0.025,0.551 0.029,0.581 0.028,0.606 0.028,0.629 0.028,0.657 0.083,2.086 0.024,0.73 0.03,0.74 0.027,0.757 0.025,0.761 0.028,0.772 0.029,0.776 0.027,0.776 0.028,0.781 0.026,0.776 0.027,0.773 0.029,0.767 0.026,0.762 0.027,0.749 0.058,1.463 0.024,0.707 0.03,0.691 0.029,0.673 0.027,0.649 0.024,0.628 0.028,0.601 0.028,0.577 0.028,0.55 0.027,0.518 0.027,0.491 0.029,0.458 0.027,0.423 0.028,0.391 0.027,0.359 0.028,0.32 0.025,0.284 0.031,0.251 0.027,0.209 0.025,0.177 0.029,0.132 0.028,0.102 0.027,0.057 0.027,0.022 0.026,-0.017 0.029,-0.055 0.028,-0.093 0.024,-0.128 0.028,-0.165 0.031,-0.203 0.025,-0.235 0.028,-0.272 0.027,-0.304 0.029,-0.336 0.027,-0.368 0.028,-0.396 0.027,-0.426 0.027,-0.455 0.029,-0.48 0.024,-0.504 0.03,-0.528 0.027,-0.55 0.027,-0.57 0.027,-0.585 0.029,-0.603 0.028,-0.618 0.025,-0.632 0.027,-0.642 0.031,-0.651 0.025,-0.66 0.026,-0.665 0.03,-0.667 0.056,-1.339 0.025,-0.668 0.026,-0.665 0.03,-0.659 0.028,-0.649 0.027,-0.642 0.028,-0.633 0.028,-0.619 0.028,-0.605 0.025,-0.589 0.028,-0.575 0.028,-0.554 0.026,-0.529 0.026,-0.514 0.03,-0.492 0.027,-0.463 0.026,-0.442 0.029,-0.416 0.028,-0.388 0.025,-0.358 0.027,-0.332 0.029,-0.3 0.028,-0.273 0.027,-0.24 0.03,-0.21 0.024,-0.179 0.03,-0.147 0.026,-0.112 0.027,-0.085 0.028,-0.05 0.029,-0.019 0.027,0.014 0.027,0.042 0.026,0.078 0.029,0.104 0.028,0.137 0.026,0.165 0.029,0.196 0.026,0.221 0.027,0.252 0.028,0.276 0.028,0.303 0.028,0.327 0.025,0.349 0.031,0.374 0.025,0.392 0.029,0.414 0.026,0.432 0.029,0.449 0.025,0.464 0.03,0.482 0.027,0.49 0.028,0.506 0.025,0.515 0.029,0.522 0.029,0.529 0.027,0.534 0.027,0.539 0.027,0.542 0.025,0.543 0.056,1.084 0.029,0.537 0.026,0.531 0.027,0.526 0.03,0.517 0.025,0.508 0.028,0.498 0.028,0.486 0.027,0.474 0.026,0.46 0.03,0.445 0.028,0.427 0.026,0.407 0.028,0.391 0.027,0.375 0.027,0.352 0.027,0.332 0.03,0.307 0.027,0.288 0.026,0.264 0.028,0.24 0.026,0.213 0.029,0.192 0.029,0.168 0.026,0.141 0.028,0.117 0.027,0.094 0.028,0.065 0.025,0.039 0.028,0.017 0.026,-0.01 0.029,-0.034 0.027,-0.058 0.03,-0.082 0.025,-0.104 0.028,-0.13 0.028,-0.149 0.028,-0.173 0.028,-0.193 0.027,-0.217 0.027,-0.232 0.027,-0.252 0.028,-0.273 0.028,-0.288 0.027,-0.304 0.026,-0.319 0.027,-0.332 0.027,-0.347 0.03,-0.356 0.025,-0.371 0.031,-0.377 0.025,-0.386 0.028,-0.396 0.029,-0.4 0.026,-0.406 0.029,-0.408 0.027,-0.412 0.026,-0.414 0.029,-0.416 0.054,-0.822 0.029,-0.408 0.026,-0.406 0.027,-0.399 0.029,-0.393 0.025,-0.386 0.028,-0.375 0.027,-0.368 0.028,-0.359 0.027,-0.348 0.03,-0.333 0.025,-0.322 0.028,-0.309 0.027,-0.296 0.028,-0.28 0.029,-0.265 0.026,-0.247 0.026,-0.232 0.029,-0.214 0.025,-0.199 0.029,-0.178 0.029,-0.162 0.027,-0.145 0.027,-0.124 0.028,-0.106 0.028,-0.086 0.025,-0.068 0.031,-0.052 0.027,-0.029 0.027,-0.015 0.027,0.007 0.028,0.021 0.026,0.042 0.026,0.063 0.03,0.076 0.027,0.093 0.028,0.109 0.027,0.129 0.026,0.142 0.029,0.156 0.026,0.169 0.029,0.184 0.025,0.198 0.03,0.207 0.028,0.224 0.026,0.229 0.027,0.244 0.028,0.248 0.028,0.26 0.028,0.267 0.026,0.273 0.027,0.28 0.029,0.283 0.028,0.292 0.026,0.292 0.029,0.291 0.026,0.301 0.109,1.183 0.026,0.293 0.029,0.291 0.028,0.283 0.027,0.28 0.028,0.276 0.028,0.268 0.026,0.264 0.027,0.253 0.029,0.247 0.028,0.24 0.025,0.225 0.029,0.22 0.027,0.209 0.027,0.2 0.029,0.184 0.026,0.178 0.03,0.163 0.026,0.149 0.026,0.142 0.03,0.128 0.026,0.113 0.028,0.101 0.028,0.089 0.025,0.075 0.029,0.06 0.027,0.05 0.026,0.034 0.028,0.022 0.028,0.009 0.03,-0.003 0.026,-0.017 0.028,-0.026 0.028,-0.042 0.026,-0.053 0.027,-0.066 0.027,-0.073 0.028,-0.086 0.029,-0.098 0.026,-0.109 0.027,-0.117 0.026,-0.125 0.029,-0.134 0.027,-0.144 0.027,-0.153 0.028,-0.157 0.028,-0.165 0.029,-0.17 0.026,-0.176 0.027,-0.181 0.027,-0.188 0.03,-0.19 0.025,-0.192 0.029,-0.198 0.027,-0.196 0.111,-0.804 0.025,-0.199 0.028,-0.201 0.027,-0.196 0.056,-0.387 0.027,-0.188 0.028,-0.185 0.028,-0.181 0.025,-0.176 0.029,-0.17 0.028,-0.165 0.028,-0.157 0.025,-0.156 0.027,-0.145 0.031,-0.139 0.026,-0.132 0.026,-0.125 0.029,-0.118 0.027,-0.109 0.028,-0.101 0.029,-0.091 0.024,-0.084 0.029,-0.078 0.027,-0.065 0.027,-0.058 0.028,-0.05 0.028,-0.042 0.027,-0.029 0.028,-0.027 0.028,-0.014 0.024,-0.005 0.029,0.002 0.028,0.009 0.029,0.017 0.026,0.026 0.026,0.035 0.029,0.045 0.03,0.048 0.025,0.054 0.026,0.063 0.029,0.068 0.027,0.078 0.028,0.081 0.027,0.085 0.027,0.094 0.029,0.096 0.027,0.101 0.026,0.106 0.03,0.112 0.026,0.114 0.056,0.233 0.027,0.122 0.028,0.124 0.026,0.126 0.028,0.125 0.054,0.258 0.03,0.128 0.025,0.126 0.027,0.129 0.086,0.374 0.026,0.121 0.025,0.118 0.056,0.234 0.056,0.218 0.055,0.202 0.025,0.098 0.058,0.177 0.025,0.083 0.028,0.081 0.026,0.07 0.029,0.068 0.028,0.066 0.027,0.057 0.054,0.1 0.03,0.04 0.028,0.037 0.024,0.032 0.03,0.024 0.027,0.022 0.027,0.014 0.029,0.009 0.025,0.003 0.028,0.002 0.028,-0.006 0.029,-0.011 0.026,-0.017 0.027,-0.022 0.025,-0.025 0.032,-0.028 0.025,-0.033 0.027,-0.038 0.026,-0.045 0.03,-0.047 0.027,-0.049 0.026,-0.053 0.029,-0.055 0.028,-0.058 0.028,-0.062 0.024,-0.064 0.03,-0.067 0.026,-0.068 0.057,-0.141 0.026,-0.073 0.025,-0.076 0.03,-0.075 0.055,-0.151 0.028,-0.078 0.053,-0.154 0.03,-0.075 0.025,-0.077 0.03,-0.074 0.054,-0.147 0.028,-0.07 0.025,-0.069 0.03,-0.067 0.026,-0.068 0.029,-0.063 0.025,-0.06 0.031,-0.06 0.027,-0.057 0.052,-0.106 0.028,-0.05 0.029,-0.047 0.028,-0.042 0.025,-0.04 0.028,-0.035 0.027,-0.037 0.027,-0.03 0.057,-0.053 0.027,-0.022 0.026,-0.017 0.031,-0.016 0.052,-0.018 0.028,-0.007 0.053,-0.003 0.029,0.005 0.027,0.006 0.029,0.009 0.025,0.011 0.027,0.014 0.029,0.017 0.082,0.065 0.031,0.028 0.026,0.027 0.025,0.031 0.029,0.032 0.053,0.069 0.031,0.036 0.025,0.038 0.028,0.038 0.026,0.042 0.028,0.037 0.027,0.042 0.028,0.045 0.027,0.042 0.058,0.086 0.027,0.042 0.055,0.087 0.053,0.084 0.055,0.087 0.028,0.037 0.027,0.042 0.084,0.112 0.026,0.034 0.054,0.072 0.084,0.088 0.026,0.027 0.029,0.025 0.026,0.026 0.055,0.043 0.028,0.018 0.026,0.018 0.054,0.028 0.03,0.013 0.029,0.009 0.027,0.006 0.028,0.009 0.025,0.003 0.03,0.005 0.025,0.003 0.027,-0.002 0.056,-0.004 0.083,-0.019 0.026,-0.01 0.03,-0.011 0.026,-0.009 0.082,-0.042 0.029,-0.019 0.052,-0.034 0.029,-0.019 0.027,-0.022 0.029,-0.019 0.024,-0.02 0.027,-0.022 0.058,-0.045 0.109,-0.088 0.028,-0.026 0.082,-0.066 0.085,-0.067 0.024,-0.02 0.054,-0.044 0.058,-0.037 0.024,-0.021 0.029,-0.018 0.026,-0.017 0.031,-0.016 0.026,-0.017 0.082,-0.042 0.054,-0.024 0.029,-0.011 0.026,-0.009 0.057,-0.018 0.025,-0.004 0.084,-0.019 0.026,-0.002 0.03,-0.003 0.053,-0.003 0.084,0.004 0.025,0.003 0.028,0.002 0.03,0.005 0.025,0.003 0.027,0.006 0.057,0.011 0.028,0.009 0.027,0.006 0.054,0.02 0.027,0.006 0.056,0.019 0.026,0.011 0.028,0.009 0.027,0.014 0.054,0.02 0.03,0.013 0.026,0.01 0.055,0.024 0.026,0.01 0.03,0.013 0.025,0.011 0.029,0.009 0.081,0.034 0.028,0.009 0.027,0.014 0.057,0.019 0.026,0.011 0.028,0.009 0.055,0.015 0.029,0.01 0.055,0.015 0.134,0.031 0.03,0.005 0.055,0.007 0.025,0.003 0.03,0.005 0.053,0.005 0.028,0.001 h 0.055 l 0.056,0.003 0.053,-0.003 0.028,0.001 0.056,-0.005 0.053,-0.003 0.084,-0.011 0.025,-0.005 0.059,-0.006 0.025,-0.005 0.082,-0.014 0.028,-0.006 0.029,-0.003 0.025,-0.005 0.056,-0.013 0.029,-0.003 0.053,-0.011 0.083,-0.019 0.027,-0.001 0.083,-0.019 0.025,-0.005 0.03,-0.003 0.028,-0.006 0.026,-0.002 0.056,-0.012 0.026,-0.002 0.028,-0.006 0.026,-0.002 0.03,-0.003 0.025,-0.005 0.029,-0.003 0.027,-0.002 0.029,-0.003 0.025,-0.004 0.027,-0.002 0.029,-0.003 0.053,-0.004 0.03,-0.003 h 0.054 l 0.053,-0.003 h 0.031 l 0.136,-0.002 0.025,0.003 0.083,0.002 0.113,0.006 0.025,0.003 0.112,0.006 0.054,0.004 0.028,0.002 0.025,0.003 0.084,0.004 0.083,0.009 0.025,0.003 0.057,0.003 0.025,0.004 0.086,0.007 0.025,0.003 0.085,0.005 0.025,0.003 0.084,0.004 0.025,0.003 0.113,0.006 0.026,-0.001 0.025,0.003 0.029,0.001 0.082,0.002 0.029,0.001 h 0.054 l 0.057,0.003 0.19,-0.002 0.028,0.002 0.026,-0.002 0.029,0.001 0.026,-0.001 0.084,-0.003 0.028,10e-4 0.053,-0.003 0.029,0.001 0.052,-0.003 0.03,-0.003 0.028,0.001 0.081,-0.001 0.027,-0.002 0.084,-0.003 0.026,-0.002 h 0.055 l 0.026,-0.001 0.03,-0.004 h 0.055 l 0.026,-0.001 0.084,-0.004 0.027,-0.001 0.081,-0.002 0.028,0.001 0.056,-0.004 0.025,0.003 0.058,-0.002 0.053,-0.003 0.028,0.001 0.026,-0.001 h 0.055 l 0.028,0.001 0.081,-0.002 h 0.195 l 0.028,0.002 0.11,-0.001 0.026,-0.001 h 0.055 l 0.056,0.003 h 0.024 l 0.059,10e-4 0.026,-0.002 0.025,0.003 0.029,0.002 0.029,-0.003 0.025,0.003 0.027,-0.002 0.056,0.003 0.026,-0.001 0.057,0.003 0.026,-0.002 0.028,0.001 0.027,-0.001 0.028,0.001 h 0.055 l 0.028,0.002 0.026,-0.002 0.028,0.002 h 0.055 l 0.028,0.001 h 0.055 l 0.028,0.001 h 0.055 l 0.028,0.002 h 0.109 l 0.027,-0.002 0.165,0.003 0.027,-0.002 0.028,0.002 0.026,-0.002 0.028,0.002 0.027,-0.002 0.423,0.002"
                       style="fill:none;stroke:#ecec13;stroke-width:0.96675;stroke-linecap:butt;stroke-linejoin:miter;stroke-miterlimit:4;stroke-dasharray:none;stroke-opacity:1"
                       id="path8637" />
                  </g>
                </g>
              </g>
            </g>
          </g>
        </g>
      </g>
    </g>
    <g
       id="g8639"
       transform="matrix(0.35277776,0,0,0.35277778,-0.6263794,-35.8663)">
      <g
         id="g8641"
         transform="matrix(0.502566,1,0.983518,-0.541625,-27.28785,427.98836)">
        <path
           d="m 184.263,229.268 -2.065,0.781 0.679,-0.78 -0.68,-0.78 z"
           style="fill:none;stroke:#ecec13;stroke-width:0.96675;stroke-linecap:butt;stroke-linejoin:miter;stroke-miterlimit:4;stroke-dasharray:none;stroke-opacity:1"
           id="path8643" />
      </g>
      <path
         d="m 82.30615,522.37936 95.426,11.652 -0.387,4.824 -95.426,-11.648 z"
         style="fill:#e9e9ff;fill-opacity:1;fill-rule:evenodd;stroke:none"
         id="path8675" />
      <path
         d="m -26.83885,546.60136 -0.449,5.606 109.207,-25 0.387,-4.828 z"
         style="fill:#353564;fill-opacity:1;fill-rule:evenodd;stroke:none"
         id="path8677" />
      <path
         d="m -27.28785,552.20736 110.781,13.523 93.852,-26.875 -95.426,-11.648 z"
         style="fill:#afafde;fill-opacity:1;fill-rule:evenodd;stroke:none"
         id="path8679" />
      <path
         d="m -26.83885,546.60136 110.785,13.528 93.786,-26.098 -95.426,-11.652 z"
         style="fill:#4d9f98;fill-opacity:1;fill-rule:evenodd;stroke:none"
         id="path8681" />
      <path
         d="m 83.94615,560.12936 -0.453,5.601 93.852,-26.875 0.387,-4.824 z"
         style="fill:#d7fffc;fill-opacity:1;fill-rule:evenodd;stroke:none"
         id="path8683" />
      <path
         d="m -26.83885,546.60136 110.785,13.528 -0.453,5.601 -110.781,-13.523 z"
         style="fill:#7cc9c3;fill-opacity:1;fill-rule:nonzero;stroke:none"
         id="path8685" />
      <path
         d="m 86.05215,567.58636 95.426,11.648 -0.387,4.824 -95.426,-11.648 z"
         style="fill:#82793b;fill-opacity:1;fill-rule:evenodd;stroke:none"
         id="path8687" />
      <path
         d="m -23.09285,591.80836 -0.449,5.602 109.207,-25 0.387,-4.824 z"
         style="fill:#82793b;fill-opacity:1;fill-rule:evenodd;stroke:none"
         id="path8689" />
      <path
         d="m -23.54185,597.41036 110.781,13.523 93.852,-26.875 -95.426,-11.648 z"
         style="fill:#82793b;fill-opacity:1;fill-rule:evenodd;stroke:none"
         id="path8691" />
      <path
         d="m -23.09285,591.80836 110.785,13.524 93.786,-26.098 -95.426,-11.648 z"
         style="fill:#9e4c4c;fill-opacity:1;fill-rule:evenodd;stroke:none"
         id="path8693" />
      <path
         d="m 87.69215,605.33236 -0.453,5.601 93.852,-26.875 0.387,-4.824 z"
         style="fill:#ffd6d6;fill-opacity:1;fill-rule:evenodd;stroke:none"
         id="path8695" />
      <path
         d="m -23.09285,591.80836 110.785,13.524 -0.453,5.601 -110.781,-13.523 z"
         style="fill:#ca7d7d;fill-opacity:1;fill-rule:nonzero;stroke:none"
         id="path8697" />
      <path
         d="m 85.81715,612.25836 95.426,11.648 -0.386,4.828 -95.426,-11.652 z"
         style="fill:#e9e9ff;fill-opacity:1;fill-rule:evenodd;stroke:none"
         id="path8699" />
      <path
         d="m -23.32285,636.48036 -0.453,5.602 109.207,-25 0.386,-4.824 z"
         style="fill:#353564;fill-opacity:1;fill-rule:evenodd;stroke:none"
         id="path8701" />
      <path
         d="m -23.77585,642.08236 110.781,13.527 93.852,-26.875 -95.426,-11.652 z"
         style="fill:#afafde;fill-opacity:1;fill-rule:evenodd;stroke:none"
         id="path8703" />
      <path
         d="m -23.32285,636.48036 110.781,13.524 93.785,-26.098 -95.426,-11.648 z"
         style="fill:#9f4d98;fill-opacity:1;fill-rule:evenodd;stroke:none"
         id="path8705" />
      <path
         d="m 87.45815,650.00436 -0.453,5.605 93.852,-26.875 0.386,-4.828 z"
         style="fill:#ffd7fc;fill-opacity:1;fill-rule:evenodd;stroke:none"
         id="path8707" />
      <path
         d="m -23.32285,636.48036 110.781,13.524 -0.453,5.605 -110.781,-13.527 z"
         style="fill:#c97cc3;fill-opacity:1;fill-rule:nonzero;stroke:none"
         id="path8709" />
      <g
         id="g8711"
         transform="matrix(1,0.116159,-0.116159,1,-27.28785,427.98836)">
        <path
           d="m 69.034,111.235 1.717,0.222 c -0.186,1.182 -0.669,2.109 -1.442,2.785 -0.77,0.664 -1.72,0.997 -2.845,0.998 -1.41,0 -2.545,-0.458 -3.402,-1.378 -0.853,-0.924 -1.28,-2.246 -1.281,-3.968 -10e-4,-1.113 0.184,-2.084 0.551,-2.92 0.369,-0.831 0.928,-1.459 1.678,-1.87 0.759,-0.421 1.578,-0.633 2.465,-0.63 1.117,-0.001 2.033,0.283 2.744,0.853 0.714,0.561 1.17,1.364 1.369,2.403 l -1.696,0.264 c -0.162,-0.692 -0.449,-1.214 -0.865,-1.564 -0.408,-0.347 -0.9,-0.52 -1.483,-0.523 -0.882,0.001 -1.596,0.318 -2.143,0.952 -0.552,0.627 -0.827,1.623 -0.825,2.987 -0.003,1.383 0.262,2.391 0.796,3.016 0.529,0.626 1.218,0.941 2.074,0.943 0.684,-0.001 1.257,-0.212 1.716,-0.633 0.459,-0.42 0.751,-1.064 0.872,-1.937 z"
           style="fill:#000000;fill-opacity:1;fill-rule:nonzero;stroke:#000000;stroke-width:0.563143;stroke-linecap:butt;stroke-linejoin:miter;stroke-miterlimit:4;stroke-dasharray:none;stroke-opacity:1"
           id="path8713" />
      </g>
      <g
         id="g8715"
         transform="matrix(1,0.116159,-0.116159,1,-27.28785,427.98836)">
        <path
           d="m 78.969,113.737 c -0.647,0.548 -1.27,0.937 -1.872,1.163 -0.595,0.225 -1.234,0.339 -1.922,0.34 -1.129,-10e-4 -2,-0.275 -2.607,-0.826 -0.608,-0.554 -0.913,-1.265 -0.915,-2.124 0,-0.504 0.115,-0.962 0.34,-1.375 0.232,-0.422 0.533,-0.758 0.902,-1.011 0.377,-0.251 0.797,-0.441 1.262,-0.573 0.345,-0.091 0.862,-0.178 1.551,-0.262 1.411,-0.168 2.45,-0.367 3.114,-0.6 0.008,-0.239 0.01,-0.392 0.01,-0.454 -10e-4,-0.715 -0.165,-1.215 -0.495,-1.505 -0.444,-0.394 -1.108,-0.594 -1.987,-0.594 -0.82,0.002 -1.428,0.147 -1.824,0.439 -0.389,0.283 -0.674,0.793 -0.862,1.522 l -1.707,-0.232 c 0.153,-0.732 0.409,-1.321 0.764,-1.764 0.357,-0.456 0.872,-0.801 1.543,-1.039 0.675,-0.246 1.453,-0.372 2.336,-0.369 0.883,-0.001 1.594,0.104 2.146,0.31 0.551,0.205 0.952,0.467 1.212,0.785 0.259,0.309 0.441,0.706 0.544,1.183 0.058,0.298 0.089,0.837 0.085,1.611 l 10e-4,2.328 c 0.001,1.625 0.035,2.652 0.108,3.085 0.078,0.428 0.227,0.837 0.445,1.233 l -1.821,-0.003 c -0.183,-0.362 -0.298,-0.786 -0.351,-1.268 z m -0.144,-3.901 c -0.634,0.261 -1.585,0.481 -2.853,0.659 -0.719,0.103 -1.225,0.221 -1.522,0.349 -0.297,0.132 -0.529,0.323 -0.692,0.573 -0.159,0.245 -0.24,0.52 -0.24,0.824 0,0.465 0.174,0.855 0.522,1.166 0.357,0.311 0.875,0.465 1.554,0.464 0.672,0 1.269,-0.143 1.794,-0.434 0.523,-0.3 0.91,-0.704 1.156,-1.213 0.184,-0.396 0.281,-0.978 0.281,-1.747 z"
           style="fill:#000000;fill-opacity:1;fill-rule:nonzero;stroke:#000000;stroke-width:0.563143;stroke-linecap:butt;stroke-linejoin:miter;stroke-miterlimit:4;stroke-dasharray:none;stroke-opacity:1"
           id="path8717" />
      </g>
      <g
         id="g8719"
         transform="matrix(1,0.116159,-0.116159,1,-27.28785,427.98836)">
        <path
           d="m 83.294,118.954 0.001,-14.251 1.59,0.003 -0.001,1.336 c 0.377,-0.52 0.8,-0.913 1.274,-1.171 0.469,-0.266 1.044,-0.399 1.716,-0.399 0.879,0 1.655,0.226 2.329,0.679 0.673,0.453 1.181,1.093 1.523,1.921 0.342,0.819 0.513,1.725 0.514,2.706 -0.002,1.055 -0.193,2.006 -0.575,2.852 -0.375,0.84 -0.925,1.49 -1.646,1.941 -0.717,0.446 -1.477,0.667 -2.269,0.67 -0.583,-0.003 -1.109,-0.125 -1.574,-0.368 -0.459,-0.248 -0.839,-0.559 -1.136,-0.935 v 5.016 z m 1.583,-9.04 c -0.002,1.325 0.268,2.305 0.806,2.938 0.535,0.637 1.185,0.952 1.947,0.953 0.777,0 1.442,-0.327 1.991,-0.981 0.557,-0.658 0.833,-1.679 0.833,-3.054 0,-1.312 -0.271,-2.296 -0.816,-2.952 -0.536,-0.652 -1.179,-0.976 -1.93,-0.979 -0.742,0 -1.4,0.35 -1.979,1.05 -0.568,0.691 -0.854,1.701 -0.852,3.025 z"
           style="fill:#000000;fill-opacity:1;fill-rule:nonzero;stroke:#000000;stroke-width:0.563143;stroke-linecap:butt;stroke-linejoin:miter;stroke-miterlimit:4;stroke-dasharray:none;stroke-opacity:1"
           id="path8721" />
      </g>
      <g
         id="g8723"
         transform="matrix(1,0.116159,-0.116159,1,-27.28785,427.98836)">
        <path
           d="m 28.891,159.433 v -8.941 l -1.543,-10e-4 -0.002,-1.359 1.544,0.001 10e-4,-1.098 c -0.002,-0.691 0.059,-1.206 0.184,-1.541 0.166,-0.453 0.46,-0.819 0.881,-1.095 0.427,-0.288 1.024,-0.427 1.786,-0.43 0.492,0.002 1.034,0.06 1.63,0.178 l -0.261,1.522 c -0.363,-0.067 -0.706,-0.097 -1.031,-0.099 -0.531,0 -0.905,0.113 -1.124,0.342 -0.22,0.225 -0.331,0.648 -0.329,1.269 l 0.001,0.953 2.007,-0.003 -0.002,1.36 -2.008,-0.002 v 8.946 z"
           style="fill:#000000;fill-opacity:1;fill-rule:nonzero;stroke:#000000;stroke-width:0.563143;stroke-linecap:butt;stroke-linejoin:miter;stroke-miterlimit:4;stroke-dasharray:none;stroke-opacity:1"
           id="path8725" />
      </g>
      <g
         id="g8727"
         transform="matrix(1,0.116159,-0.116159,1,-27.28785,427.98836)">
        <path
           d="m 41.044,156.115 1.804,0.224 c -0.284,1.057 -0.81,1.872 -1.582,2.454 -0.768,0.585 -1.75,0.875 -2.946,0.873 -1.508,-0.001 -2.706,-0.463 -3.591,-1.388 -0.877,-0.929 -1.318,-2.233 -1.317,-3.909 -0.002,-1.73 0.443,-3.075 1.336,-4.034 0.893,-0.955 2.052,-1.434 3.474,-1.435 1.379,0 2.503,0.467 3.374,1.405 0.875,0.937 1.309,2.258 1.311,3.957 0.001,0.105 -0.004,0.262 -0.008,0.466 l -7.684,0.002 c 0.066,1.133 0.385,1.998 0.959,2.599 0.577,0.601 1.296,0.901 2.155,0.902 0.641,0 1.188,-0.169 1.637,-0.502 0.453,-0.338 0.813,-0.876 1.078,-1.614 z m -5.734,-2.822 h 5.754 c -0.077,-0.867 -0.297,-1.517 -0.66,-1.947 -0.554,-0.674 -1.277,-1.012 -2.164,-1.011 -0.801,0 -1.476,0.27 -2.027,0.806 -0.544,0.536 -0.843,1.254 -0.903,2.152 z"
           style="fill:#000000;fill-opacity:1;fill-rule:nonzero;stroke:#000000;stroke-width:0.563143;stroke-linecap:butt;stroke-linejoin:miter;stroke-miterlimit:4;stroke-dasharray:none;stroke-opacity:1"
           id="path8729" />
      </g>
      <g
         id="g8731"
         transform="matrix(1,0.116159,-0.116159,1,-27.28785,427.98836)">
        <path
           d="m 45.02,159.435 0.002,-10.301 1.57,-0.003 0.002,1.562 c 0.4,-0.73 0.77,-1.21 1.106,-1.445 0.34,-0.231 0.717,-0.349 1.123,-0.349 0.59,0.002 1.186,0.187 1.796,0.565 l -0.601,1.617 c -0.427,-0.252 -0.856,-0.378 -1.282,-0.379 -0.383,0.002 -0.725,0.119 -1.026,0.35 -0.306,0.227 -0.523,0.545 -0.651,0.95 -0.194,0.621 -0.291,1.3 -0.291,2.038 l -0.002,5.395 z"
           style="fill:#000000;fill-opacity:1;fill-rule:nonzero;stroke:#000000;stroke-width:0.563143;stroke-linecap:butt;stroke-linejoin:miter;stroke-miterlimit:4;stroke-dasharray:none;stroke-opacity:1"
           id="path8733" />
      </g>
      <g
         id="g8735"
         transform="matrix(1,0.116159,-0.116159,1,-27.28785,427.98836)">
        <path
           d="m 51.637,159.435 -0.002,-10.304 1.575,0.001 -0.002,1.562 c 0.403,-0.73 0.769,-1.214 1.105,-1.444 0.344,-0.236 0.718,-0.349 1.128,-0.35 0.585,-0.002 1.185,0.186 1.791,0.561 l -0.6,1.621 c -0.424,-0.252 -0.853,-0.378 -1.279,-0.379 -0.382,0.002 -0.725,0.115 -1.029,0.35 -0.302,0.227 -0.519,0.545 -0.648,0.95 -0.197,0.621 -0.294,1.3 -0.294,2.038 l 0.001,5.395 z"
           style="fill:#000000;fill-opacity:1;fill-rule:nonzero;stroke:#000000;stroke-width:0.563143;stroke-linecap:butt;stroke-linejoin:miter;stroke-miterlimit:4;stroke-dasharray:none;stroke-opacity:1"
           id="path8737" />
      </g>
      <g
         id="g8739"
         transform="matrix(1,0.116159,-0.116159,1,-27.28785,427.98836)">
        <path
           d="m 57.621,154.283 c 10e-4,-1.906 0.532,-3.319 1.593,-4.239 0.884,-0.763 1.965,-1.143 3.238,-1.146 1.418,0.003 2.574,0.467 3.475,1.397 0.897,0.927 1.346,2.207 1.349,3.843 -0.003,1.325 -0.201,2.371 -0.601,3.133 -0.397,0.757 -0.977,1.344 -1.741,1.764 -0.756,0.42 -1.582,0.633 -2.481,0.632 -1.441,0 -2.608,-0.462 -3.501,-1.386 -0.888,-0.924 -1.329,-2.26 -1.331,-3.998 z m 1.796,-10e-4 c 10e-4,1.32 0.288,2.31 0.865,2.97 0.576,0.651 1.297,0.978 2.172,0.978 0.867,0.001 1.587,-0.329 2.162,-0.99 0.577,-0.656 0.862,-1.662 0.865,-3.014 0.001,-1.274 -0.291,-2.24 -0.875,-2.891 -0.576,-0.659 -1.294,-0.99 -2.154,-0.992 -0.871,0 -1.594,0.33 -2.171,0.983 -0.576,0.653 -0.864,1.639 -0.864,2.956 z"
           style="fill:#000000;fill-opacity:1;fill-rule:nonzero;stroke:#000000;stroke-width:0.563143;stroke-linecap:butt;stroke-linejoin:miter;stroke-miterlimit:4;stroke-dasharray:none;stroke-opacity:1"
           id="path8741" />
      </g>
      <g
         id="g8743"
         transform="matrix(1,0.116159,-0.116159,1,-27.28785,427.98836)">
        <path
           d="m 69.321,159.436 -0.002,-10.304 1.563,0.002 v 1.445 c 0.324,-0.506 0.754,-0.908 1.292,-1.213 0.535,-0.312 1.146,-0.465 1.833,-0.466 0.762,0.001 1.386,0.159 1.871,0.474 0.491,0.318 0.839,0.762 1.038,1.328 0.817,-1.2 1.876,-1.804 3.181,-1.803 1.023,0.002 1.81,0.286 2.357,0.855 0.549,0.561 0.826,1.432 0.826,2.607 l 0.002,7.074 -1.739,-0.001 v -6.488 c 10e-4,-0.699 -0.057,-1.2 -0.174,-1.503 -0.111,-0.312 -0.315,-0.561 -0.611,-0.75 -0.299,-0.188 -0.646,-0.28 -1.048,-0.28 -0.723,-0.002 -1.327,0.244 -1.806,0.729 -0.476,0.477 -0.714,1.247 -0.716,2.306 l -0.001,5.984 -1.745,0.004 -10e-4,-6.695 c 0,-0.778 -0.142,-1.359 -0.425,-1.748 -0.287,-0.384 -0.751,-0.58 -1.4,-0.579 -0.488,-0.002 -0.945,0.129 -1.365,0.385 -0.415,0.259 -0.715,0.638 -0.903,1.136 -0.188,0.498 -0.281,1.216 -0.281,2.154 l -10e-4,5.343 z"
           style="fill:#000000;fill-opacity:1;fill-rule:nonzero;stroke:#000000;stroke-width:0.563143;stroke-linecap:butt;stroke-linejoin:miter;stroke-miterlimit:4;stroke-dasharray:none;stroke-opacity:1"
           id="path8745" />
      </g>
      <g
         id="g8747"
         transform="matrix(1,0.116159,-0.116159,1,-27.28785,427.98836)">
        <path
           d="m 92.591,158.163 c -0.647,0.551 -1.27,0.936 -1.872,1.166 -0.595,0.226 -1.235,0.339 -1.918,0.336 -1.133,0.003 -2.005,-0.274 -2.612,-0.821 -0.607,-0.559 -0.912,-1.265 -0.91,-2.125 0,-0.504 0.114,-0.966 0.339,-1.379 0.233,-0.422 0.533,-0.757 0.903,-1.007 0.373,-0.255 0.796,-0.444 1.262,-0.573 0.341,-0.09 0.858,-0.178 1.551,-0.262 1.41,-0.168 2.445,-0.37 3.114,-0.604 0.007,-0.239 0.009,-0.388 0.009,-0.454 0,-0.711 -0.164,-1.211 -0.495,-1.505 -0.448,-0.393 -1.107,-0.59 -1.99,-0.589 -0.821,-0.003 -1.428,0.146 -1.821,0.434 -0.388,0.287 -0.677,0.793 -0.865,1.526 l -1.708,-0.235 c 0.158,-0.729 0.41,-1.317 0.768,-1.765 0.354,-0.451 0.868,-0.8 1.54,-1.038 0.674,-0.246 1.453,-0.368 2.34,-0.37 0.878,0 1.594,0.104 2.141,0.31 0.552,0.21 0.957,0.471 1.217,0.789 0.258,0.309 0.437,0.703 0.539,1.183 0.058,0.298 0.089,0.833 0.09,1.611 l 0.001,2.328 c -0.003,1.621 0.034,2.648 0.104,3.081 0.077,0.429 0.226,0.841 0.448,1.233 l -1.824,0.001 c -0.183,-0.361 -0.299,-0.785 -0.351,-1.271 z m -0.144,-3.898 c -0.635,0.258 -1.586,0.477 -2.853,0.66 -0.715,0.102 -1.225,0.22 -1.522,0.349 -0.298,0.128 -0.526,0.318 -0.688,0.572 -0.163,0.245 -0.244,0.52 -0.244,0.825 -0.001,0.465 0.173,0.851 0.526,1.161 0.352,0.311 0.87,0.466 1.55,0.469 0.672,0 1.272,-0.148 1.797,-0.439 0.52,-0.295 0.907,-0.699 1.152,-1.212 0.189,-0.393 0.281,-0.974 0.282,-1.744 z"
           style="fill:#000000;fill-opacity:1;fill-rule:nonzero;stroke:#000000;stroke-width:0.563143;stroke-linecap:butt;stroke-linejoin:miter;stroke-miterlimit:4;stroke-dasharray:none;stroke-opacity:1"
           id="path8749" />
      </g>
      <g
         id="g8751"
         transform="matrix(1,0.116159,-0.116159,1,-27.28785,427.98836)">
        <path
           d="m 96.599,160.287 1.698,0.252 c 0.072,0.523 0.269,0.906 0.59,1.146 0.436,0.325 1.025,0.487 1.775,0.485 0.808,0 1.434,-0.162 1.873,-0.487 0.439,-0.32 0.738,-0.773 0.893,-1.357 0.092,-0.355 0.134,-1.102 0.126,-2.242 -0.762,0.902 -1.714,1.352 -2.851,1.351 -1.417,0.001 -2.512,-0.513 -3.291,-1.532 -0.775,-1.023 -1.163,-2.247 -1.161,-3.677 -0.001,-0.984 0.175,-1.888 0.532,-2.718 0.356,-0.835 0.871,-1.476 1.541,-1.929 0.682,-0.454 1.476,-0.679 2.386,-0.68 1.219,-0.001 2.221,0.492 3.007,1.475 l 0.001,-1.242 h 1.609 l 0.003,8.906 c -0.001,1.602 -0.166,2.738 -0.495,3.406 -0.324,0.67 -0.841,1.203 -1.553,1.59 -0.705,0.387 -1.573,0.581 -2.609,0.58 -1.23,0.003 -2.223,-0.276 -2.979,-0.833 -0.756,-0.549 -1.122,-1.382 -1.095,-2.494 z m 1.446,-6.187 c 0,1.351 0.267,2.336 0.804,2.957 0.537,0.621 1.21,0.934 2.019,0.933 0.8,-0.003 1.472,-0.307 2.018,-0.922 0.541,-0.621 0.815,-1.59 0.814,-2.911 -0.002,-1.261 -0.281,-2.213 -0.843,-2.851 -0.559,-0.642 -1.229,-0.963 -2.018,-0.961 -0.777,0.001 -1.436,0.315 -1.98,0.949 -0.544,0.63 -0.814,1.563 -0.814,2.806 z"
           style="fill:#000000;fill-opacity:1;fill-rule:nonzero;stroke:#000000;stroke-width:0.563143;stroke-linecap:butt;stroke-linejoin:miter;stroke-miterlimit:4;stroke-dasharray:none;stroke-opacity:1"
           id="path8753" />
      </g>
      <g
         id="g8755"
         transform="matrix(1,0.116159,-0.116159,1,-27.28785,427.98836)">
        <path
           d="m 107.969,159.435 -0.002,-10.305 1.571,0.002 0.002,1.464 c 0.755,-1.13 1.85,-1.695 3.279,-1.697 0.618,0.002 1.189,0.112 1.704,0.341 0.526,0.22 0.919,0.511 1.176,0.871 0.257,0.365 0.439,0.793 0.544,1.293 0.065,0.32 0.095,0.887 0.096,1.695 l 0.001,6.336 h -1.746 l -10e-4,-6.266 c -0.001,-0.714 -0.066,-1.242 -0.205,-1.593 -0.135,-0.355 -0.378,-0.636 -0.726,-0.841 -0.342,-0.215 -0.749,-0.324 -1.213,-0.32 -0.743,-0.004 -1.387,0.235 -1.93,0.704 -0.539,0.473 -0.806,1.371 -0.805,2.688 l 0.001,5.628 z"
           style="fill:#000000;fill-opacity:1;fill-rule:nonzero;stroke:#000000;stroke-width:0.563143;stroke-linecap:butt;stroke-linejoin:miter;stroke-miterlimit:4;stroke-dasharray:none;stroke-opacity:1"
           id="path8757" />
      </g>
      <g
         id="g8759"
         transform="matrix(1,0.116159,-0.116159,1,-27.28785,427.98836)">
        <path
           d="m 126.068,156.118 1.803,0.22 c -0.284,1.056 -0.809,1.875 -1.578,2.457 -0.772,0.582 -1.754,0.871 -2.949,0.874 -1.508,-0.001 -2.706,-0.463 -3.591,-1.388 -0.878,-0.933 -1.319,-2.237 -1.317,-3.909 -0.003,-1.735 0.443,-3.079 1.335,-4.038 0.893,-0.956 2.052,-1.434 3.474,-1.435 1.379,0 2.504,0.471 3.375,1.409 0.874,0.937 1.312,2.253 1.311,3.957 0,0.101 -0.005,0.258 -0.008,0.465 l -7.684,-0.002 c 0.065,1.134 0.384,1.999 0.958,2.6 0.578,0.601 1.296,0.904 2.156,0.902 0.64,0 1.187,-0.165 1.64,-0.503 0.449,-0.337 0.809,-0.871 1.075,-1.609 z m -5.734,-2.822 5.754,-0.001 c -0.078,-0.87 -0.297,-1.516 -0.66,-1.951 -0.555,-0.673 -1.278,-1.007 -2.165,-1.01 -0.8,-0.001 -1.476,0.269 -2.027,0.806 -0.543,0.536 -0.843,1.254 -0.902,2.156 z"
           style="fill:#000000;fill-opacity:1;fill-rule:nonzero;stroke:#000000;stroke-width:0.563143;stroke-linecap:butt;stroke-linejoin:miter;stroke-miterlimit:4;stroke-dasharray:none;stroke-opacity:1"
           id="path8761" />
      </g>
      <g
         id="g8763"
         transform="matrix(1,0.116159,-0.116159,1,-27.28785,427.98836)">
        <path
           d="m 133.877,157.871 0.254,1.545 c -0.492,0.104 -0.931,0.155 -1.322,0.153 -0.633,-10e-4 -1.125,-0.1 -1.473,-0.301 -0.351,-0.198 -0.596,-0.462 -0.739,-0.786 -0.14,-0.327 -0.212,-1.018 -0.213,-2.065 l -10e-4,-5.925 -1.277,-10e-4 -0.002,-1.359 h 1.282 v -2.551 l 1.734,-1.049 v 3.602 l 1.758,-0.002 -0.002,1.36 -1.755,-0.003 0.001,6.027 c -0.001,0.496 0.029,0.817 0.088,0.959 0.063,0.141 0.162,0.254 0.301,0.34 0.139,0.085 0.343,0.124 0.601,0.125 0.191,0.001 0.447,-0.02 0.765,-0.069 z"
           style="fill:#000000;fill-opacity:1;fill-rule:nonzero;stroke:#000000;stroke-width:0.563143;stroke-linecap:butt;stroke-linejoin:miter;stroke-miterlimit:4;stroke-dasharray:none;stroke-opacity:1"
           id="path8765" />
      </g>
      <g
         id="g8767"
         transform="matrix(1,0.116159,-0.116159,1,-27.28785,427.98836)">
        <path
           d="m 48.234,200.284 1.726,-0.271 c 0.096,0.692 0.365,1.223 0.806,1.59 0.445,0.37 1.068,0.556 1.861,0.553 0.801,0.001 1.399,-0.162 1.787,-0.485 0.388,-0.33 0.582,-0.712 0.581,-1.153 0.001,-0.395 -0.172,-0.707 -0.514,-0.932 -0.241,-0.152 -0.834,-0.353 -1.784,-0.59 -1.283,-0.324 -2.171,-0.603 -2.667,-0.835 -0.493,-0.239 -0.867,-0.567 -1.125,-0.978 -0.252,-0.42 -0.381,-0.886 -0.381,-1.39 0.002,-0.457 0.105,-0.883 0.31,-1.27 0.216,-0.392 0.502,-0.723 0.863,-0.979 0.273,-0.2 0.641,-0.368 1.105,-0.504 0.476,-0.145 0.979,-0.215 1.514,-0.215 0.809,0 1.518,0.117 2.127,0.351 0.613,0.233 1.068,0.548 1.356,0.948 0.292,0.396 0.491,0.927 0.603,1.594 l -1.707,0.229 c -0.078,-0.53 -0.305,-0.941 -0.68,-1.241 -0.37,-0.297 -0.891,-0.443 -1.571,-0.446 -0.8,0.003 -1.375,0.136 -1.719,0.399 -0.341,0.266 -0.512,0.575 -0.513,0.93 -0.001,0.227 0.073,0.433 0.215,0.612 0.139,0.187 0.364,0.344 0.668,0.465 0.175,0.066 0.688,0.213 1.544,0.446 1.233,0.329 2.093,0.605 2.579,0.818 0.492,0.204 0.875,0.507 1.152,0.909 0.281,0.401 0.418,0.901 0.42,1.494 -0.003,0.582 -0.173,1.133 -0.515,1.65 -0.335,0.511 -0.825,0.908 -1.463,1.193 -0.644,0.278 -1.366,0.417 -2.175,0.417 -1.339,-10e-4 -2.36,-0.277 -3.065,-0.836 -0.698,-0.555 -1.145,-1.378 -1.338,-2.473 z"
           style="fill:#000000;fill-opacity:1;fill-rule:nonzero;stroke:#000000;stroke-width:0.563143;stroke-linecap:butt;stroke-linejoin:miter;stroke-miterlimit:4;stroke-dasharray:none;stroke-opacity:1"
           id="path8769" />
      </g>
      <g
         id="g8771"
         transform="matrix(1,0.116159,-0.116159,1,-27.28785,427.98836)">
        <path
           d="m 65.618,203.362 v -1.515 c -0.802,1.163 -1.894,1.747 -3.27,1.747 -0.609,0 -1.177,-0.118 -1.708,-0.349 -0.523,-0.232 -0.917,-0.526 -1.172,-0.875 -0.252,-0.354 -0.431,-0.786 -0.534,-1.298 -0.071,-0.343 -0.106,-0.886 -0.107,-1.632 l 0.001,-6.383 1.746,0.001 v 5.714 c 0,0.911 0.032,1.528 0.104,1.844 0.112,0.459 0.346,0.819 0.701,1.086 0.354,0.26 0.795,0.388 1.318,0.386 0.524,0.002 1.016,-0.129 1.473,-0.397 0.461,-0.269 0.782,-0.634 0.971,-1.094 0.196,-0.468 0.29,-1.139 0.293,-2.018 l -10e-4,-5.52 1.747,0.001 -0.003,10.301 z"
           style="fill:#000000;fill-opacity:1;fill-rule:nonzero;stroke:#000000;stroke-width:0.563143;stroke-linecap:butt;stroke-linejoin:miter;stroke-miterlimit:4;stroke-dasharray:none;stroke-opacity:1"
           id="path8773" />
      </g>
      <g
         id="g8775"
         transform="matrix(1,0.116159,-0.116159,1,-27.28785,427.98836)">
        <path
           d="m 71.524,203.36 -1.621,10e-4 10e-4,-14.223 h 1.746 l -0.001,5.074 c 0.737,-0.925 1.679,-1.386 2.824,-1.386 0.633,0.001 1.234,0.13 1.795,0.389 0.568,0.25 1.036,0.61 1.398,1.076 0.366,0.457 0.653,1.014 0.862,1.669 0.209,0.652 0.309,1.351 0.31,2.093 0.002,1.766 -0.437,3.133 -1.31,4.094 -0.872,0.964 -1.922,1.446 -3.14,1.447 -1.219,0.001 -2.173,-0.51 -2.865,-1.523 z m -0.021,-5.228 c 0.003,1.234 0.169,2.129 0.506,2.675 0.55,0.901 1.294,1.35 2.231,1.351 0.762,0.001 1.423,-0.33 1.979,-0.988 0.556,-0.666 0.835,-1.656 0.835,-2.972 0,-1.344 -0.268,-2.336 -0.807,-2.977 -0.528,-0.641 -1.174,-0.961 -1.928,-0.959 -0.766,-0.001 -1.422,0.333 -1.981,0.999 -0.557,0.659 -0.832,1.617 -0.835,2.871 z"
           style="fill:#000000;fill-opacity:1;fill-rule:nonzero;stroke:#000000;stroke-width:0.563143;stroke-linecap:butt;stroke-linejoin:miter;stroke-miterlimit:4;stroke-dasharray:none;stroke-opacity:1"
           id="path8777" />
      </g>
      <g
         id="g8779"
         transform="matrix(1,0.116159,-0.116159,1,-27.28785,427.98836)">
        <path
           d="m 80.265,200.286 1.726,-0.271 c 0.096,0.692 0.365,1.219 0.806,1.59 0.446,0.37 1.064,0.552 1.861,0.553 0.801,0.001 1.396,-0.162 1.784,-0.484 0.391,-0.331 0.585,-0.717 0.585,-1.154 -0.003,-0.394 -0.172,-0.707 -0.515,-0.932 -0.241,-0.156 -0.834,-0.353 -1.784,-0.594 -1.283,-0.324 -2.171,-0.599 -2.671,-0.834 -0.488,-0.237 -0.866,-0.564 -1.125,-0.979 -0.252,-0.42 -0.376,-0.882 -0.376,-1.386 0.001,-0.461 0.104,-0.883 0.309,-1.27 0.212,-0.396 0.502,-0.723 0.863,-0.979 0.273,-0.204 0.641,-0.372 1.105,-0.508 0.472,-0.14 0.98,-0.211 1.515,-0.211 0.808,0 1.517,0.117 2.126,0.347 0.613,0.233 1.064,0.552 1.357,0.952 0.292,0.396 0.49,0.923 0.602,1.59 l -1.707,0.233 c -0.077,-0.53 -0.305,-0.945 -0.679,-1.241 -0.371,-0.297 -0.892,-0.447 -1.572,-0.446 -0.804,-0.001 -1.375,0.132 -1.719,0.399 -0.341,0.262 -0.511,0.575 -0.513,0.93 -10e-4,0.227 0.07,0.43 0.212,0.612 0.143,0.187 0.368,0.34 0.671,0.465 0.175,0.062 0.689,0.213 1.544,0.446 1.234,0.329 2.093,0.601 2.579,0.814 0.493,0.208 0.876,0.511 1.153,0.913 0.281,0.401 0.417,0.897 0.42,1.494 -0.003,0.582 -0.174,1.129 -0.516,1.65 -0.335,0.507 -0.824,0.908 -1.463,1.189 -0.643,0.282 -1.366,0.42 -2.174,0.421 -1.34,-0.001 -2.361,-0.281 -3.066,-0.836 -0.697,-0.555 -1.145,-1.382 -1.338,-2.473 z"
           style="fill:#000000;fill-opacity:1;fill-rule:nonzero;stroke:#000000;stroke-width:0.563143;stroke-linecap:butt;stroke-linejoin:miter;stroke-miterlimit:4;stroke-dasharray:none;stroke-opacity:1"
           id="path8781" />
      </g>
      <g
         id="g8783"
         transform="matrix(1,0.116159,-0.116159,1,-27.28785,427.98836)">
        <path
           d="m 94.707,201.8 0.253,1.541 c -0.492,0.104 -0.931,0.155 -1.318,0.157 -0.633,-10e-4 -1.125,-0.1 -1.476,-0.302 -0.348,-0.201 -0.593,-0.462 -0.736,-0.785 -0.144,-0.331 -0.212,-1.018 -0.213,-2.069 l -0.001,-5.926 -1.281,0.001 0.002,-1.36 h 1.277 l 0.001,-2.551 1.738,-1.046 v 3.598 h 1.754 l 0.001,1.359 h -1.754 l -0.003,6.024 c 0.003,0.496 0.029,0.817 0.088,0.959 0.064,0.145 0.167,0.258 0.301,0.34 0.143,0.085 0.343,0.128 0.601,0.125 0.195,0.001 0.45,-0.021 0.766,-0.065 z"
           style="fill:#000000;fill-opacity:1;fill-rule:nonzero;stroke:#000000;stroke-width:0.563143;stroke-linecap:butt;stroke-linejoin:miter;stroke-miterlimit:4;stroke-dasharray:none;stroke-opacity:1"
           id="path8785" />
      </g>
      <g
         id="g8787"
         transform="matrix(1,0.116159,-0.116159,1,-27.28785,427.98836)">
        <path
           d="m 96.396,203.361 -0.001,-10.3 1.573,-0.003 -0.002,1.562 c 0.404,-0.73 0.77,-1.21 1.106,-1.445 0.344,-0.231 0.721,-0.349 1.127,-0.349 0.586,-0.002 1.186,0.186 1.796,0.561 l -0.605,1.621 c -0.424,-0.252 -0.852,-0.378 -1.278,-0.379 -0.383,0.001 -0.725,0.119 -1.03,0.35 -0.302,0.226 -0.519,0.545 -0.647,0.95 -0.198,0.621 -0.295,1.3 -0.295,2.038 l 0.002,5.395 z"
           style="fill:#000000;fill-opacity:1;fill-rule:nonzero;stroke:#000000;stroke-width:0.563143;stroke-linecap:butt;stroke-linejoin:miter;stroke-miterlimit:4;stroke-dasharray:none;stroke-opacity:1"
           id="path8789" />
      </g>
      <g
         id="g8791"
         transform="matrix(1,0.116159,-0.116159,1,-27.28785,427.98836)">
        <path
           d="m 109.752,202.091 c -0.643,0.548 -1.27,0.937 -1.869,1.163 -0.599,0.225 -1.238,0.339 -1.921,0.34 -1.133,-0.001 -2.001,-0.275 -2.612,-0.826 -0.607,-0.554 -0.912,-1.265 -0.911,-2.124 0,-0.504 0.115,-0.963 0.341,-1.376 0.232,-0.421 0.533,-0.757 0.902,-1.011 0.373,-0.25 0.796,-0.444 1.261,-0.572 0.341,-0.091 0.859,-0.178 1.552,-0.262 1.41,-0.168 2.446,-0.367 3.114,-0.6 0.007,-0.24 0.009,-0.392 0.009,-0.458 0,-0.711 -0.164,-1.212 -0.495,-1.502 -0.448,-0.393 -1.108,-0.594 -1.99,-0.593 -0.82,0.002 -1.429,0.147 -1.821,0.438 -0.388,0.284 -0.677,0.79 -0.866,1.523 l -1.706,-0.232 c 0.157,-0.733 0.409,-1.321 0.767,-1.768 0.354,-0.452 0.868,-0.797 1.544,-1.035 0.67,-0.246 1.449,-0.372 2.336,-0.369 0.879,-0.001 1.594,0.104 2.145,0.309 0.548,0.206 0.953,0.468 1.212,0.785 0.259,0.31 0.438,0.707 0.54,1.184 0.062,0.297 0.089,0.833 0.09,1.61 l 0.001,2.328 c -0.003,1.626 0.034,2.653 0.104,3.086 0.077,0.428 0.226,0.837 0.448,1.233 l -1.825,-0.003 c -0.182,-0.362 -0.298,-0.786 -0.35,-1.268 z m -0.144,-3.901 c -0.635,0.257 -1.586,0.477 -2.854,0.659 -0.714,0.103 -1.224,0.221 -1.522,0.349 -0.297,0.132 -0.525,0.323 -0.687,0.572 -0.163,0.246 -0.244,0.521 -0.244,0.825 -0.001,0.465 0.177,0.855 0.526,1.166 0.356,0.31 0.87,0.465 1.55,0.464 0.672,0 1.272,-0.144 1.797,-0.435 0.524,-0.299 0.907,-0.703 1.152,-1.212 0.189,-0.397 0.281,-0.978 0.282,-1.747 z"
           style="fill:#000000;fill-opacity:1;fill-rule:nonzero;stroke:#000000;stroke-width:0.563143;stroke-linecap:butt;stroke-linejoin:miter;stroke-miterlimit:4;stroke-dasharray:none;stroke-opacity:1"
           id="path8793" />
      </g>
      <g
         id="g8795"
         transform="matrix(1,0.116159,-0.116159,1,-27.28785,427.98836)">
        <path
           d="m 117.894,201.798 0.25,1.545 c -0.493,0.1 -0.932,0.155 -1.319,0.153 -0.632,-0.001 -1.124,-0.1 -1.476,-0.301 -0.347,-0.198 -0.593,-0.462 -0.736,-0.786 -0.144,-0.331 -0.212,-1.018 -0.212,-2.065 l -10e-4,-5.926 -1.282,-0.003 0.003,-1.356 h 1.277 l 0.001,-2.551 1.737,-1.049 0.001,3.601 h 1.754 l 10e-4,1.355 -1.754,0.001 -0.004,6.024 c 0.004,0.499 0.033,0.82 0.089,0.962 0.067,0.141 0.166,0.254 0.301,0.34 0.142,0.081 0.343,0.124 0.601,0.126 0.195,0 0.45,-0.025 0.769,-0.07 z"
           style="fill:#000000;fill-opacity:1;fill-rule:nonzero;stroke:#000000;stroke-width:0.563143;stroke-linecap:butt;stroke-linejoin:miter;stroke-miterlimit:4;stroke-dasharray:none;stroke-opacity:1"
           id="path8797" />
      </g>
      <g
         id="g8799"
         transform="matrix(1,0.116159,-0.116159,1,-27.28785,427.98836)">
        <path
           d="m 126.651,200.042 1.803,0.224 c -0.284,1.053 -0.81,1.872 -1.578,2.453 -0.772,0.582 -1.754,0.876 -2.949,0.874 -1.508,-10e-4 -2.703,-0.463 -3.591,-1.387 -0.878,-0.93 -1.318,-2.234 -1.318,-3.91 -0.001,-1.73 0.447,-3.079 1.336,-4.034 0.893,-0.959 2.052,-1.438 3.474,-1.435 1.379,0 2.504,0.467 3.378,1.405 0.871,0.938 1.309,2.258 1.308,3.957 0,0.106 -0.002,0.258 -0.009,0.466 l -7.683,0.002 c 0.065,1.129 0.384,1.998 0.962,2.599 0.574,0.601 1.292,0.901 2.152,0.902 0.64,0 1.187,-0.169 1.64,-0.507 0.453,-0.333 0.809,-0.871 1.075,-1.609 z m -5.73,-2.822 h 5.75 c -0.078,-0.866 -0.298,-1.517 -0.661,-1.951 -0.554,-0.67 -1.277,-1.008 -2.163,-1.006 -0.801,-0.001 -1.477,0.269 -2.028,0.805 -0.543,0.536 -0.842,1.254 -0.898,2.152 z"
           style="fill:#000000;fill-opacity:1;fill-rule:nonzero;stroke:#000000;stroke-width:0.563143;stroke-linecap:butt;stroke-linejoin:miter;stroke-miterlimit:4;stroke-dasharray:none;stroke-opacity:1"
           id="path8801" />
      </g>
    </g>
    <g
       id="g8803"
       transform="matrix(0.35277776,0,0,0.35277778,-10.252926,115.11849)">
      <g
         id="g8805"
         clip-path="url(#clipPath8809)">
        <g
           id="g8811"
           clip-path="url(#clipPath8815)">
          <g
             id="g8817">
            <g
               id="g8819">
              <g
                 id="g8821"
                 clip-path="url(#clipPath8825)">
                <g
                   id="g8827">
                  <g
                     id="g8829"
                     transform="matrix(0.472516,1,0.924712,-0.541625,0,0)">
                    <path
                       d="m 38.789,46.67 h 0.867 l 0.048,10e-4 0.137,0.002 0.048,10e-4 0.136,-0.002 0.044,0.002 0.093,-10e-4 0.045,0.003 0.093,-0.001 0.044,0.003 0.048,0.001 0.045,-0.003 0.09,10e-4 0.048,10e-4 0.044,0.003 0.048,0.001 0.045,-0.003 0.045,0.003 0.046,-0.002 0.044,0.003 0.095,0.002 0.042,-0.001 0.095,0.002 0.045,0.003 0.045,-0.002 0.045,0.002 0.093,-10e-4 0.044,0.003 0.046,-0.002 0.048,10e-4 h 0.09 l 0.047,0.001 0.18,10e-4 0.048,10e-4 0.321,0.001 0.045,-0.002 h 0.09 l 0.048,10e-4 0.093,-10e-4 0.046,-0.002 0.042,-10e-4 0.046,-0.002 0.047,0.001 0.046,-0.002 0.043,-10e-4 0.047,0.002 0.093,-0.002 0.183,-0.008 0.047,10e-4 0.134,-0.005 0.046,-0.003 0.093,-0.001 0.046,-0.002 0.139,-0.003 0.044,-0.006 0.138,-0.003 0.046,-0.002 0.139,-0.004 h 0.042 l 0.137,-0.007 0.139,-0.003 0.043,-0.001 0.139,-0.003 0.047,0.001 0.046,-0.003 0.047,0.002 0.046,-0.003 0.321,0.001 0.042,-0.001 0.048,0.002 0.092,0.003 h 0.042 l 0.14,0.004 0.044,0.003 0.048,0.001 0.044,0.003 0.047,10e-4 0.137,0.006 0.046,0.006 0.044,0.003 0.048,10e-4 0.044,0.003 0.046,0.006 0.048,10e-4 0.046,0.006 0.089,0.005 0.094,0.007 0.044,0.003 0.137,0.014 0.044,0.003 0.14,0.013 0.044,0.003 0.14,0.013 0.045,0.002 0.09,0.009 0.048,10e-4 0.044,0.003 0.094,0.007 0.044,0.002 0.138,0.01 0.043,-0.001 0.139,0.005 0.048,10e-4 0.226,-10e-4 0.047,10e-4 0.274,-0.013 0.093,-0.009 0.044,-0.006 0.045,-0.002 0.047,-0.007 0.046,-0.002 0.091,-0.013 0.047,-0.007 0.043,-0.006 0.138,-0.019 0.047,-0.008 0.139,-0.024 0.042,-0.009 0.094,-0.014 0.045,-0.011 0.092,-0.017 0.091,-0.021 0.139,-0.024 0.045,-0.011 0.092,-0.017 0.047,-0.007 0.042,-0.009 0.094,-0.014 0.045,-0.011 0.044,-0.005 0.094,-0.014 0.044,-0.006 0.047,-0.007 0.045,-0.002 0.047,-0.007 0.046,-0.003 0.044,-0.005 0.094,-0.006 0.043,-10e-4 0.046,-0.002 0.093,-10e-4 0.136,0.006 0.044,0.003 0.048,10e-4 0.185,0.024 0.091,0.017 0.043,0.007 0.048,0.009 0.047,0.015 0.043,0.007 0.046,0.014 0.045,0.011 0.094,0.028 0.09,0.03 0.047,0.014 0.228,0.082 0.227,0.096 0.049,0.017 0.042,0.021 0.05,0.02 0.044,0.016 0.091,0.038 0.139,0.056 0.044,0.015 0.046,0.019 0.092,0.033 0.093,0.029 0.045,0.011 0.044,0.015 0.047,0.014 0.048,0.01 0.043,0.007 0.046,0.006 0.045,0.011 0.092,0.012 0.045,0.003 0.047,10e-4 0.044,0.002 0.095,0.002 0.09,-0.007 0.094,-0.014 0.045,-0.011 0.044,-0.005 0.046,-0.016 0.09,-0.029 0.046,-0.015 0.045,-0.018 0.095,-0.041 0.089,-0.045 0.093,-0.052 0.044,-0.027 0.046,-0.031 0.047,-0.029 0.091,-0.063 0.046,-0.036 0.046,-0.032 0.046,-0.036 0.044,-0.035 0.093,-0.073 0.045,-0.04 0.138,-0.113 0.045,-0.04 0.138,-0.113 0.093,-0.073 0.09,-0.071 0.044,-0.035 0.048,-0.033 0.044,-0.035 0.045,-0.032 0.142,-0.085 0.043,-0.022 0.047,-0.028 0.045,-0.019 0.047,-0.02 0.045,-0.018 0.045,-0.011 0.046,-0.015 0.046,-0.01 0.093,-0.015 0.046,-0.002 h 0.043 l 0.046,0.006 0.047,0.001 0.09,0.021 0.047,0.014 0.044,0.016 0.094,0.045 0.044,0.024 0.048,0.03 0.045,0.032 0.046,0.036 0.044,0.037 0.048,0.038 0.044,0.045 0.047,0.044 0.092,0.097 0.044,0.053 0.093,0.113 0.135,0.185 0.095,0.133 0.044,0.066 0.091,0.139 0.047,0.073 0.046,0.07 0.044,0.075 0.046,0.069 0.047,0.073 0.042,0.071 0.093,0.143 0.091,0.139 0.049,0.068 0.044,0.067 0.047,0.065 0.09,0.123 0.092,0.113 0.092,0.105 0.046,0.048 0.09,0.081 0.093,0.07 0.046,0.028 0.045,0.024 0.045,0.019 0.047,0.014 0.045,0.011 0.046,0.006 0.091,-0.005 0.049,-0.012 0.043,-0.014 0.048,-0.02 0.044,-0.026 0.045,-0.032 0.047,-0.037 0.045,-0.039 0.046,-0.045 0.045,-0.053 0.047,-0.058 0.045,-0.061 0.045,-0.069 0.091,-0.148 0.049,-0.084 0.043,-0.086 0.048,-0.092 0.043,-0.093 0.047,-0.101 0.046,-0.103 0.046,-0.108 0.044,-0.107 0.048,-0.114 0.046,-0.116 0.089,-0.24 0.048,-0.121 0.046,-0.125 0.043,-0.128 0.049,-0.126 0.093,-0.255 0.088,-0.256 0.049,-0.126 0.045,-0.125 0.044,-0.128 0.045,-0.12 0.093,-0.238 0.045,-0.112 0.094,-0.216 0.042,-0.102 0.049,-0.097 0.043,-0.094 0.047,-0.087 0.045,-0.082 0.047,-0.079 0.045,-0.07 0.048,-0.062 0.044,-0.056 0.044,-0.048 0.048,-0.042 0.045,-0.031 0.048,-0.029 0.044,-0.018 0.045,-0.011 0.048,10e-4 0.043,0.008 0.048,0.017 0.045,0.024 0.046,0.036 0.045,0.04 0.093,0.113 0.042,0.071 0.048,0.082 0.047,0.086 0.046,0.099 0.046,0.107 0.045,0.112 0.045,0.125 0.046,0.129 0.043,0.138 0.049,0.148 0.045,0.155 0.045,0.162 0.047,0.167 0.046,0.171 0.048,0.182 0.042,0.186 0.047,0.187 0.047,0.195 0.046,0.201 0.043,0.202 0.093,0.417 0.043,0.21 0.094,0.425 0.091,0.427 0.091,0.422 0.047,0.209 0.045,0.205 0.048,0.203 0.044,0.197 0.047,0.196 0.044,0.189 0.092,0.358 0.046,0.171 0.047,0.158 0.044,0.155 0.047,0.144 0.045,0.134 0.045,0.125 0.047,0.115 0.044,0.104 0.047,0.095 0.046,0.077 0.046,0.07 0.046,0.057 0.044,0.045 0.046,0.027 0.049,0.017 0.044,0.003 0.046,-0.015 0.045,-0.027 0.047,-0.041 0.043,-0.052 0.048,-0.07 0.045,-0.083 0.047,-0.1 0.045,-0.112 0.044,-0.128 0.046,-0.137 0.047,-0.159 0.046,-0.168 0.045,-0.183 0.046,-0.197 0.044,-0.208 0.047,-0.223 0.047,-0.231 0.047,-0.244 0.044,-0.258 0.048,-0.265 0.045,-0.277 0.045,-0.285 0.044,-0.293 0.047,-0.303 0.046,-0.306 0.047,-0.316 0.046,-0.319 0.042,-0.326 0.049,-0.329 0.043,-0.33 0.045,-0.336 0.05,-0.334 0.09,-0.671 0.046,-0.332 0.044,-0.33 0.094,-0.648 0.045,-0.315 0.046,-0.311 0.047,-0.302 0.043,-0.297 0.047,-0.281 0.045,-0.277 0.045,-0.264 0.048,-0.249 0.044,-0.237 0.047,-0.223 0.045,-0.213 0.046,-0.188 0.047,-0.18 0.047,-0.16 0.043,-0.144 0.045,-0.125 0.047,-0.108 0.047,-0.087 0.043,-0.065 0.049,-0.046 0.044,-0.027 0.046,-0.002 0.044,0.016 0.048,0.039 0.045,0.061 0.045,0.083 0.047,0.102 0.045,0.125 0.047,0.153 0.044,0.168 0.046,0.192 0.048,0.212 0.045,0.235 0.045,0.256 0.046,0.272 0.047,0.297 0.044,0.311 0.047,0.331 0.046,0.352 0.045,0.366 0.044,0.383 0.048,0.398 0.047,0.411 0.044,0.429 0.046,0.438 0.046,0.445 0.047,0.462 0.046,0.467 0.043,0.476 0.046,0.483 0.046,0.488 0.047,0.491 0.044,0.493 0.139,1.488 0.091,0.976 0.046,0.483 0.045,0.471 0.046,0.467 0.048,0.457 0.044,0.442 0.047,0.432 0.045,0.416 0.047,0.403 0.043,0.384 0.046,0.365 0.046,0.352 0.046,0.323 0.045,0.307 0.046,0.28 0.047,0.259 0.045,0.235 0.045,0.213 0.047,0.18 0.047,0.153 0.045,0.125 0.045,0.099 0.044,0.066 0.049,0.039 0.043,0.007 0.046,-0.023 0.048,-0.054 0.045,-0.083 0.045,-0.12 0.046,-0.146 0.047,-0.18 0.046,-0.21 0.045,-0.242 0.044,-0.272 0.047,-0.303 0.048,-0.328 0.042,-0.364 0.048,-0.388 0.047,-0.417 0.041,-0.443 0.048,-0.468 0.046,-0.492 0.047,-0.519 0.044,-0.538 0.045,-0.559 0.048,-0.582 0.044,-0.597 0.046,-0.615 0.045,-0.631 0.047,-0.641 0.046,-0.657 0.046,-0.666 0.045,-0.674 0.048,-0.683 0.043,-0.685 0.048,-0.692 0.044,-0.69 0.049,-0.688 0.043,-0.685 0.048,-0.684 0.043,-0.677 0.046,-0.665 0.046,-0.658 0.046,-0.644 0.046,-0.628 0.046,-0.615 0.046,-0.593 0.044,-0.576 0.048,-0.553 0.043,-0.533 0.047,-0.505 0.047,-0.476 0.047,-0.447 0.044,-0.423 0.045,-0.387 0.045,-0.356 0.049,-0.321 0.044,-0.285 0.046,-0.247 0.045,-0.213 0.047,-0.172 0.044,-0.136 0.048,-0.092 0.045,-0.053 0.044,-0.014 0.047,0.03 0.048,0.073 0.045,0.113 0.046,0.157 0.044,0.198 0.047,0.237 0.047,0.281 0.043,0.324 0.045,0.366 0.05,0.401 0.044,0.442 0.045,0.48 0.047,0.521 0.045,0.551 0.043,0.591 0.048,0.622 0.046,0.656 0.048,0.686 0.044,0.716 0.046,0.741 0.044,0.768 0.046,0.791 0.046,0.813 0.044,0.831 0.05,0.849 0.046,0.864 0.042,0.878 0.047,0.888 0.046,0.893 0.044,0.903 0.049,0.905 0.045,0.906 0.047,0.901 0.042,0.9 0.049,0.891 0.044,0.882 0.046,0.872 0.046,0.855 0.044,0.839 0.049,0.82 0.045,0.796 0.045,0.776 0.045,0.746 0.049,0.718 0.042,0.684 0.047,0.656 0.046,0.619 0.045,0.581 0.048,0.542 0.044,0.5 0.047,0.462 0.044,0.413 0.046,0.365 0.046,0.323 0.046,0.272 0.047,0.225 0.043,0.173 0.047,0.124 0.046,0.069 0.045,0.019 0.045,-0.04 0.048,-0.092 0.046,-0.137 0.043,-0.195 0.046,-0.248 0.047,-0.303 0.047,-0.353 0.045,-0.407 0.045,-0.458 0.048,-0.502 0.046,-0.556 0.044,-0.606 0.047,-0.649 0.045,-0.695 0.046,-0.737 0.046,-0.78 0.044,-0.821 0.048,-0.856 0.044,-0.893 0.045,-0.927 0.049,-0.954 0.044,-0.986 0.046,-1.012 0.046,-1.033 0.046,-1.054 0.045,-1.071 0.047,-1.089 0.045,-1.1 0.046,-1.105 0.044,-1.116 0.047,-1.118 0.043,-1.116 0.049,-1.115 0.046,-1.105 0.047,-1.097 0.044,-1.087 0.047,-1.067 0.043,-1.053 0.047,-1.03 0.047,-1.003 0.046,-0.975 0.045,-0.948 0.046,-0.91 0.045,-0.877 0.046,-0.838 0.043,-0.8 0.048,-0.755 0.046,-0.708 0.044,-0.656 0.047,-0.611 0.047,-0.556 0.043,-0.504 0.048,-0.447 0.046,-0.391 0.045,-0.327 0.047,-0.274 0.045,-0.212 0.046,-0.146 0.047,-0.088 0.042,-0.022 0.049,0.039 0.044,0.104 0.047,0.166 0.044,0.232 0.045,0.293 0.047,0.361 0.046,0.416 0.045,0.479 0.047,0.542 0.045,0.602 0.047,0.657 0.045,0.711 0.045,0.767 0.046,0.822 0.045,0.868 0.048,0.918 0.046,0.965 0.045,1.007 0.046,1.05 0.044,1.084 0.047,1.125 0.047,1.155 0.042,1.182 0.048,1.213 0.046,1.231 0.049,1.251 0.043,1.271 0.044,1.278 0.047,1.29 0.093,2.597 0.091,2.59 0.045,1.281 0.046,1.274 0.045,1.253 0.047,1.239 0.044,1.215 0.047,1.189 0.047,1.154 0.044,1.127 0.047,1.09 0.046,1.05 0.045,1.008 0.046,0.965 0.044,0.911 0.048,0.867 0.044,0.809 0.045,0.755 0.047,0.698 0.047,0.635 0.046,0.576 0.042,0.511 0.046,0.445 0.05,0.381 0.044,0.311 0.045,0.243 0.047,0.166 0.046,0.099 0.045,0.032 0.048,-0.041 0.043,-0.115 0.048,-0.186 0.043,-0.258 0.046,-0.328 0.045,-0.399 0.048,-0.468 0.046,-0.534 0.045,-0.602 0.046,-0.666 0.045,-0.732 0.047,-0.793 0.044,-0.855 0.046,-0.911 0.044,-0.964 0.05,-1.018 0.042,-1.07 0.049,-1.114 0.044,-1.159 0.045,-1.202 0.047,-1.24 0.047,-1.275 0.045,-1.303 0.044,-1.332 0.046,-1.358 0.047,-1.376 0.047,-1.392 0.045,-1.409 0.047,-1.414 0.043,-1.42 0.047,-1.422 0.045,-1.417 0.048,-1.411 0.043,-1.399 0.049,-1.389 0.043,-1.369 0.047,-1.342 0.044,-1.324 0.047,-1.291 0.046,-1.257 0.047,-1.22 0.044,-1.18 0.047,-1.139 0.045,-1.092 0.047,-1.038 0.046,-0.99 0.046,-0.932 0.045,-0.876 0.044,-0.813 0.047,-0.75 0.048,-0.684 0.042,-0.621 0.047,-0.548 0.045,-0.479 0.045,-0.408 0.05,-0.334 0.043,-0.258 0.047,-0.189 0.046,-0.108 0.044,-0.035 0.047,0.043 0.044,0.117 0.047,0.196 0.044,0.269 0.046,0.344 0.047,0.419 0.048,0.491 0.042,0.562 0.048,0.63 0.044,0.7 0.047,0.766 0.044,0.831 0.046,0.893 0.047,0.952 0.046,1.007 0.044,1.063 0.046,1.117 0.046,1.159 0.046,1.21 0.047,1.248 0.047,1.29 0.045,1.324 0.044,1.351 0.046,1.383 0.046,1.404 0.048,1.424 0.042,1.441 0.049,1.453 0.045,1.46 0.046,1.463 0.044,1.465 0.047,1.458 0.046,1.455 0.045,1.439 0.047,1.421 0.046,1.404 0.044,1.38 0.046,1.354 0.046,1.319 0.046,1.282 0.047,1.248 0.044,1.206 0.046,1.16 0.046,1.108 0.046,1.059 0.045,1.007 0.048,0.947 0.043,0.886 0.045,0.826 0.093,1.457 0.047,0.626 0.044,0.557 0.048,0.486 0.047,0.411 0.045,0.336 0.043,0.266 0.046,0.187 0.047,0.116 0.044,0.037 0.048,-0.042 0.046,-0.116 0.046,-0.189 0.043,-0.267 0.048,-0.337 0.046,-0.412 0.045,-0.488 0.046,-0.556 0.046,-0.623 0.044,-0.69 0.048,-0.755 0.044,-0.821 0.048,-0.878 0.044,-0.935 0.045,-0.99 0.047,-1.046 0.047,-1.097 0.047,-1.139 0.042,-1.184 0.045,-1.222 0.047,-1.262 0.047,-1.291 0.045,-1.324 0.048,-1.347 0.043,-1.37 0.048,-1.389 0.046,-1.4 0.044,-1.413 0.048,-1.418 0.041,-1.424 0.049,-1.418 0.046,-1.414 0.048,-1.406 0.043,-1.391 0.045,-1.374 0.045,-1.358 0.046,-1.329 0.045,-1.303 0.049,-1.271 0.046,-1.236 0.046,-1.198 0.045,-1.159 0.047,-1.11 0.044,-1.066 0.045,-1.011 0.044,-0.965 0.048,-0.907 0.045,-0.847 0.046,-0.788 0.047,-0.729 0.044,-0.661 0.047,-0.598 0.045,-0.53 0.048,-0.46 0.044,-0.394 0.044,-0.323 0.047,-0.252 0.046,-0.183 0.046,-0.109 0.047,-0.036 0.043,0.037 0.048,0.102 0.046,0.179 0.043,0.245 0.047,0.318 0.047,0.381 0.044,0.451 0.046,0.517 0.045,0.581 0.046,0.64 0.048,0.702 0.044,0.759 0.046,0.813 0.048,0.867 0.044,0.919 0.045,0.97 0.048,1.011 0.047,1.053 0.044,1.092 0.044,1.127 0.048,1.162 0.046,1.189 0.045,1.215 0.046,1.239 0.044,1.258 0.049,1.272 0.043,1.283 0.048,1.294 0.044,1.299 0.046,1.299 0.046,1.295 0.046,1.29 0.046,1.281 0.045,1.266 0.045,1.252 0.049,1.23 0.044,1.207 0.046,1.18 0.045,1.152 0.045,1.121 0.048,1.083 0.045,1.05 0.047,1.002 0.044,0.962 0.046,0.914 0.045,0.869 0.045,0.813 0.048,0.765 0.044,0.709 0.045,0.653 0.049,0.596 0.044,0.535 0.046,0.475 0.046,0.416 0.044,0.349 0.049,0.291 0.045,0.227 0.045,0.163 0.046,0.099 0.044,0.032 0.047,-0.028 0.045,-0.091 0.047,-0.151 0.043,-0.216 0.048,-0.273 0.048,-0.337 0.044,-0.395 0.043,-0.453 0.05,-0.507 0.045,-0.559 0.046,-0.615 0.044,-0.661 0.048,-0.713 0.043,-0.757 0.046,-0.801 0.046,-0.838 0.046,-0.881 0.047,-0.916 0.046,-0.948 0.044,-0.978 0.048,-1.008 0.043,-1.032 0.048,-1.051 0.045,-1.07 0.044,-1.087 0.049,-1.099 0.045,-1.108 0.045,-1.113 0.044,-1.117 0.047,-1.118 0.045,-1.113 0.046,-1.105 0.048,-1.101 0.044,-1.087 0.047,-1.068 0.046,-1.054 0.046,-1.033 0.045,-1.007 0.046,-0.982 0.044,-0.957 0.047,-0.923 0.045,-0.89 0.047,-0.851 0.044,-0.821 0.045,-0.775 0.048,-0.734 0.047,-0.692 0.044,-0.647 0.047,-0.599 0.043,-0.554 0.047,-0.498 0.047,-0.454 0.043,-0.403 0.047,-0.353 0.046,-0.298 0.046,-0.239 0.048,-0.194 0.045,-0.141 0.045,-0.082 0.045,-0.032 0.046,0.019 0.046,0.078 0.047,0.124 0.045,0.176 0.046,0.23 0.045,0.277 0.046,0.323 0.046,0.373 0.045,0.416 0.047,0.462 0.047,0.504 0.041,0.545 0.047,0.584 0.048,0.622 0.047,0.657 0.045,0.69 0.045,0.717 0.046,0.749 0.045,0.775 0.047,0.8 0.046,0.821 0.046,0.843 0.043,0.857 0.049,0.87 0.044,0.882 0.046,0.893 0.047,0.901 0.044,0.903 0.045,0.906 0.047,0.901 0.043,0.903 0.048,0.896 0.046,0.885 0.045,0.877 0.046,0.864 0.045,0.847 0.047,0.829 0.046,0.813 0.044,0.789 0.047,0.765 0.046,0.741 0.046,0.712 0.045,0.682 0.045,0.653 0.048,0.622 0.044,0.586 0.045,0.552 0.049,0.515 0.045,0.48 0.045,0.437 0.045,0.4 0.047,0.361 0.044,0.319 0.046,0.281 0.048,0.233 0.045,0.197 0.044,0.154 0.047,0.108 0.048,0.068 0.043,0.028 0.046,-0.015 0.047,-0.058 0.046,-0.095 0.044,-0.136 0.045,-0.176 0.046,-0.217 0.049,-0.249 0.042,-0.292 0.049,-0.32 0.043,-0.36 0.048,-0.388 0.045,-0.421 0.047,-0.454 0.045,-0.48 0.045,-0.508 0.045,-0.53 0.046,-0.556 0.047,-0.578 0.046,-0.593 0.044,-0.618 0.047,-0.628 0.048,-0.646 0.042,-0.659 0.049,-0.667 0.043,-0.677 0.048,-0.684 0.043,-0.685 0.047,-0.691 0.046,-0.687 0.044,-0.69 0.046,-0.687 0.047,-0.678 0.048,-0.676 0.041,-0.667 0.048,-0.654 0.048,-0.641 0.045,-0.631 0.045,-0.615 0.046,-0.593 0.045,-0.581 0.047,-0.556 0.044,-0.538 0.046,-0.514 0.046,-0.492 0.044,-0.466 0.046,-0.442 0.05,-0.414 0.042,-0.389 0.046,-0.357 0.048,-0.329 0.044,-0.301 0.046,-0.269 0.046,-0.239 0.047,-0.209 0.045,-0.176 0.046,-0.146 0.043,-0.115 0.049,-0.084 0.047,-0.049 0.043,-0.022 0.048,0.009 0.045,0.041 0.046,0.069 0.046,0.099 0.046,0.129 0.044,0.154 0.047,0.188 0.044,0.21 0.047,0.238 0.046,0.259 0.045,0.285 0.047,0.302 0.046,0.331 0.045,0.349 0.044,0.37 0.048,0.385 0.047,0.403 0.045,0.416 0.044,0.434 0.046,0.446 0.048,0.456 0.044,0.464 0.046,0.475 0.047,0.483 0.091,0.975 0.043,0.498 0.095,0.991 0.089,0.985 0.048,0.486 0.044,0.485 0.046,0.475 0.046,0.467 0.045,0.458 0.048,0.449 0.045,0.437 0.046,0.424 0.044,0.413 0.046,0.395 0.047,0.381 0.045,0.366 0.048,0.347 0.043,0.333 0.047,0.31 0.045,0.293 0.048,0.276 0.041,0.249 0.049,0.233 0.045,0.213 0.047,0.188 0.045,0.171 0.044,0.146 0.05,0.127 0.042,0.101 0.045,0.082 0.047,0.057 0.048,0.039 0.045,0.011 0.044,-0.006 0.049,-0.025 0.044,-0.048 0.044,-0.069 0.047,-0.087 0.047,-0.109 0.046,-0.124 0.042,-0.145 0.048,-0.164 0.046,-0.175 0.046,-0.197 0.046,-0.209 0.046,-0.226 0.046,-0.24 0.044,-0.25 0.045,-0.264 0.045,-0.276 0.05,-0.284 0.043,-0.296 0.047,-0.303 0.046,-0.311 0.048,-0.316 0.044,-0.322 0.045,-0.327 0.044,-0.331 0.046,-0.332 0.045,-0.336 0.095,-0.669 0.042,-0.334 0.046,-0.332 0.049,-0.329 0.044,-0.322 0.046,-0.32 0.047,-0.315 0.044,-0.31 0.048,-0.299 0.045,-0.293 0.045,-0.285 0.047,-0.274 0.046,-0.268 0.042,-0.254 0.048,-0.244 0.047,-0.231 0.044,-0.221 0.046,-0.21 0.045,-0.191 0.091,-0.351 0.049,-0.156 0.046,-0.138 0.044,-0.128 0.047,-0.108 0.044,-0.099 0.048,-0.084 0.045,-0.069 0.046,-0.053 0.044,-0.04 0.046,-0.023 0.045,-0.01 0.048,10e-4 0.045,0.019 0.046,0.027 0.044,0.045 0.047,0.057 0.047,0.073 0.045,0.082 0.045,0.091 0.048,0.103 0.044,0.117 0.047,0.123 0.044,0.138 0.047,0.145 0.044,0.155 0.046,0.163 0.047,0.166 0.046,0.179 0.045,0.184 0.047,0.187 0.044,0.197 0.047,0.196 0.09,0.41 0.046,0.209 0.049,0.212 0.043,0.21 0.091,0.427 0.048,0.211 0.045,0.214 0.044,0.21 0.046,0.209 0.045,0.205 0.048,0.203 0.046,0.201 0.091,0.384 0.045,0.184 0.046,0.179 0.048,0.175 0.044,0.167 0.046,0.158 0.045,0.155 0.047,0.145 0.043,0.138 0.048,0.132 0.046,0.12 0.047,0.115 0.045,0.104 0.044,0.096 0.048,0.089 0.046,0.078 0.046,0.07 0.045,0.061 0.045,0.049 0.044,0.045 0.047,0.035 0.044,0.024 0.047,0.014 0.046,0.006 0.047,0.001 0.046,-0.01 0.044,-0.019 0.044,-0.026 0.047,-0.037 0.048,-0.041 0.044,-0.048 0.047,-0.058 0.045,-0.061 0.048,-0.071 0.044,-0.077 0.045,-0.082 0.047,-0.088 0.047,-0.092 0.045,-0.098 0.045,-0.104 0.047,-0.108 0.09,-0.224 0.094,-0.238 0.044,-0.119 0.044,-0.128 0.046,-0.125 0.094,-0.251 0.044,-0.128 0.091,-0.258 0.046,-0.125 0.047,-0.129 0.047,-0.122 0.046,-0.124 0.089,-0.24 0.048,-0.113 0.09,-0.224 0.047,-0.108 0.047,-0.1 0.088,-0.198 0.093,-0.174 0.046,-0.082 0.044,-0.078 0.047,-0.071 0.047,-0.065 0.09,-0.123 0.047,-0.049 0.046,-0.045 0.043,-0.043 0.049,-0.033 0.045,-0.032 0.044,-0.026 0.045,-0.019 0.046,-0.015 0.045,-0.011 0.046,-0.002 0.047,0.001 0.047,0.006 0.048,0.009 0.043,0.016 0.046,0.019 0.044,0.024 0.048,0.031 0.044,0.032 0.047,0.035 0.045,0.04 0.047,0.044 0.044,0.045 0.048,0.052 0.044,0.053 0.093,0.113 0.09,0.123 0.045,0.07 0.094,0.129 0.091,0.14 0.044,0.074 0.093,0.143 0.046,0.07 0.091,0.147 0.228,0.348 0.094,0.13 0.135,0.184 0.092,0.114 0.048,0.051 0.043,0.05 0.047,0.052 0.047,0.044 0.042,0.041 0.049,0.039 0.045,0.04 0.089,0.064 0.048,0.031 0.047,0.022 0.045,0.024 0.09,0.038 0.047,0.014 0.043,0.008 0.048,0.009 0.047,0.006 0.044,0.003 0.046,-0.002 0.094,-0.006 0.135,-0.032 0.047,-0.015 0.045,-0.018 0.047,-0.021 0.135,-0.068 0.094,-0.057 0.042,-0.03 0.049,-0.033 0.091,-0.064 0.046,-0.036 0.044,-0.035 0.14,-0.11 0.136,-0.116 0.047,-0.036 0.091,-0.076 0.045,-0.04 0.14,-0.11 0.043,-0.035 0.047,-0.036 0.045,-0.032 0.047,-0.036 0.136,-0.095 0.047,-0.029 0.089,-0.053 0.137,-0.07 0.093,-0.039 0.044,-0.019 0.139,-0.046 0.091,-0.02 0.047,-0.007 0.045,-0.011 0.044,-0.005 0.048,-0.004 0.046,-0.002 0.043,-0.001 0.095,0.002 0.088,0.005 0.093,0.012 0.048,0.01 0.043,0.007 0.093,0.02 0.045,0.011 0.14,0.043 0.044,0.015 0.046,0.014 0.044,0.016 0.046,0.019 0.092,0.033 0.094,0.037 0.042,0.02 0.046,0.019 0.094,0.037 0.09,0.038 0.048,0.022 0.043,0.016 0.14,0.055 0.091,0.038 0.046,0.015 0.046,0.019 0.044,0.015 0.14,0.043 0.043,0.015 0.092,0.025 0.045,0.011 0.048,0.01 0.135,0.032 0.046,0.006 0.094,0.015 0.043,0.008 0.048,10e-4 0.09,0.008 0.045,0.003 0.092,0.004 0.095,0.002 0.088,-0.003 0.137,-0.006 0.049,-0.004 0.043,-0.006 0.137,-0.015 0.047,-0.007 0.091,-0.012 0.047,-0.007 0.136,-0.023 0.047,-0.008 0.045,-0.01 0.047,-0.007 0.09,-0.021 0.047,-0.007 0.092,-0.017 0.045,-0.011 0.092,-0.017 0.042,-0.009 0.095,-0.019 0.044,-0.006 0.046,-0.01 0.14,-0.021 0.042,-0.009 0.141,-0.021 0.044,-0.006 0.047,-0.007 0.088,-0.011 0.049,-0.004 0.043,-0.005 0.049,-0.004 0.044,-0.006 0.091,-0.004 0.049,-0.004 0.041,-0.004 0.094,-0.006 0.048,0.001 h 0.042 l 0.046,-0.003 0.231,10e-4 0.042,-10e-4 0.14,0.005 0.044,0.003 0.048,0.001 0.092,0.003 0.044,0.003 0.094,0.007 0.088,0.005 0.094,0.007 0.046,0.006 0.045,0.003 0.093,0.007 0.045,0.003 0.137,0.014 0.046,0.006 0.047,10e-4 0.046,0.006 0.045,0.003 0.135,0.011 0.046,0.006 0.047,0.001 0.045,0.003 0.046,0.006 0.044,0.003 0.048,10e-4 0.094,0.007 0.044,0.002 0.092,0.004 0.089,0.005 0.047,0.002 0.046,0.006 0.046,-0.003 0.136,0.007 0.048,10e-4 0.092,0.004 0.045,-0.003 0.045,0.003 0.321,0.001 0.091,-0.005 0.047,0.001 h 0.043 l 0.139,-0.004 0.045,-0.002 0.094,-0.001 0.042,-10e-4 0.137,-0.006 0.048,10e-4 0.182,-0.009 0.139,-0.003 0.137,-0.007 0.043,-10e-4 0.049,-0.003 0.093,-0.001 0.042,-10e-4 0.139,-0.003 0.046,-0.003 0.139,-0.003 0.042,-10e-4 0.092,-0.004 0.047,0.001 0.091,-0.004 0.048,0.001 0.042,-0.001 0.048,0.001 0.046,-0.002 h 0.09 l 0.045,-0.002 0.138,0.002 0.046,-0.003 0.276,-10e-4 0.044,0.002 h 0.184 l 0.047,0.001 h 0.09 l 0.048,10e-4 0.042,-10e-4 0.048,0.002 h 0.09 l 0.047,0.001 0.045,0.003 0.047,10e-4 0.046,-0.002 0.047,0.001 0.043,-0.001 0.047,0.001 0.045,0.003 0.047,10e-4 0.046,-0.002 0.044,0.002 0.048,10e-4 h 0.042 l 0.095,0.002 h 0.09 l 0.048,10e-4 h 0.042 l 0.048,0.001 h 0.09 l 0.047,10e-4 0.091,10e-4 0.047,0.001 h 0.09 l 0.048,0.002 0.183,-10e-4 0.044,0.002 h 0.273 l 0.048,10e-4 0.046,-0.002 0.044,0.003 0.047,0.001 0.046,-0.002 0.703,-10e-4"
                       style="fill:none;stroke:#ecec15;stroke-width:1.61202;stroke-linecap:butt;stroke-linejoin:miter;stroke-miterlimit:4;stroke-dasharray:none;stroke-opacity:1"
                       id="path8831" />
                  </g>
                </g>
              </g>
            </g>
          </g>
        </g>
      </g>
    </g>
    <g
       id="g8833"
       transform="matrix(0.35277776,0,0,0.35277778,-10.252926,115.11849)">
      <g
         id="g8835"
         transform="matrix(0.472516,1,0.924712,-0.541625,0,0)">
        <path
           d="m 133.1,46.681 -3.447,1.301 1.139,-1.3 -1.137,-1.299 z"
           style="fill:none;stroke:#ecec15;stroke-width:1.61202;stroke-linecap:butt;stroke-linejoin:miter;stroke-miterlimit:4;stroke-dasharray:none;stroke-opacity:1"
           id="path8837" />
      </g>
      <g
         id="g8839">
        <path
           d="m 627.031,34.863 c 0,6.973 -2.898,13.657 -8.062,18.586 -5.164,4.93 -12.168,7.699 -19.473,7.699 -15.207,0 -27.539,-11.765 -27.539,-26.285 0,-14.515 12.332,-26.285 27.539,-26.285 7.305,0 14.309,2.77 19.473,7.699 5.164,4.93 8.062,11.618 8.062,18.586 z"
           style="fill:none;stroke:#4c9f98;stroke-width:5.10236;stroke-linecap:butt;stroke-linejoin:miter;stroke-miterlimit:4;stroke-dasharray:none;stroke-opacity:1"
           id="path8841" />
      </g>
      <g
         id="g8843">
        <path
           d="m 752.242,183.188 c 0,14.515 -12.328,26.285 -27.539,26.285 -15.207,0 -27.535,-11.77 -27.535,-26.285 0,-14.516 12.328,-26.286 27.535,-26.286 15.211,0 27.539,11.77 27.539,26.286 z"
           style="fill:none;stroke:#9f4c98;stroke-width:5.10236;stroke-linecap:butt;stroke-linejoin:miter;stroke-miterlimit:4;stroke-dasharray:none;stroke-opacity:1"
           id="path8845" />
      </g>
      <path
         d="m 541.867,41.578 16.653,-1.801 -8.723,14.297 z"
         style="fill:#000000;fill-opacity:1;fill-rule:nonzero;stroke:none"
         id="path8847" />
      <g
         id="g8849"
         transform="matrix(0.605395,0.933361,-1,0.644544,0,0)">
        <path
           d="m 301.774,-365.757 -1.148,49.001"
           style="fill:#000000;fill-opacity:1;fill-rule:nonzero;stroke:#000000;stroke-width:2.59572;stroke-linecap:butt;stroke-linejoin:miter;stroke-miterlimit:4;stroke-dasharray:none;stroke-opacity:1"
           id="path8851" />
      </g>
      <g
         id="g8853"
         transform="matrix(0.00253189,0.788634,-1,-0.130332,0,0)">
        <path
           d="m 90.676,-676.317 15.568,-16.215 6.257,21.586 z"
           style="fill:#000000;fill-opacity:1;fill-rule:nonzero;stroke:#000000;stroke-width:0.163644;stroke-linecap:butt;stroke-linejoin:miter;stroke-miterlimit:4;stroke-dasharray:none;stroke-opacity:1"
           id="path8855" />
      </g>
      <g
         id="g8857"
         transform="matrix(-0.335369,1,-1,-0.335369,0,0)">
        <path
           d="m -52.073,-666.986 0.584,186.508"
           style="fill:#000000;fill-opacity:1;fill-rule:nonzero;stroke:#000000;stroke-width:3.19443;stroke-linecap:butt;stroke-linejoin:miter;stroke-miterlimit:4;stroke-dasharray:none;stroke-opacity:1"
           id="path8859" />
      </g>
      <path
         d="M 596.609,44.695 V 28.914 h 1.762 v 1.484 c 0.414,-0.582 0.883,-1.015 1.406,-1.3 0.524,-0.293 1.157,-0.442 1.903,-0.442 0.972,0 1.832,0.254 2.578,0.754 0.746,0.5 1.305,1.211 1.687,2.125 0.379,0.91 0.567,1.91 0.567,3 0,1.164 -0.211,2.219 -0.633,3.156 -0.414,0.93 -1.024,1.649 -1.824,2.149 -0.797,0.496 -1.633,0.742 -2.516,0.742 -0.644,0 -1.223,-0.137 -1.738,-0.41 -0.512,-0.27 -0.93,-0.613 -1.258,-1.031 v 5.554 z m 1.75,-10.011 c 0,1.468 0.297,2.554 0.891,3.254 0.598,0.703 1.316,1.054 2.16,1.054 0.86,0 1.594,-0.363 2.203,-1.086 0.617,-0.73 0.922,-1.859 0.922,-3.383 0,-1.453 -0.301,-2.543 -0.902,-3.265 -0.594,-0.723 -1.305,-1.086 -2.137,-1.086 -0.824,0 -1.555,0.387 -2.191,1.16 -0.629,0.766 -0.946,1.883 -0.946,3.352 z"
         style="fill:#4040bf;fill-opacity:1;fill-rule:nonzero;stroke:none"
         id="path8861" />
      <path
         d="M 720.52,193.711 V 177.93 h 1.761 v 1.484 c 0.414,-0.582 0.883,-1.016 1.407,-1.301 0.523,-0.293 1.156,-0.441 1.902,-0.441 0.973,0 1.832,0.25 2.578,0.754 0.742,0.5 1.305,1.207 1.684,2.125 0.382,0.91 0.57,1.91 0.57,2.996 0,1.168 -0.211,2.223 -0.633,3.16 -0.414,0.93 -1.023,1.645 -1.828,2.148 -0.793,0.493 -1.633,0.743 -2.512,0.743 -0.644,0 -1.226,-0.137 -1.742,-0.41 -0.508,-0.274 -0.926,-0.618 -1.254,-1.032 v 5.555 z m 1.75,-10.012 c 0,1.469 0.296,2.551 0.89,3.254 0.594,0.703 1.317,1.055 2.16,1.055 0.86,0 1.594,-0.363 2.203,-1.086 0.614,-0.731 0.922,-1.859 0.922,-3.383 0,-1.457 -0.3,-2.543 -0.902,-3.266 -0.594,-0.726 -1.305,-1.085 -2.137,-1.085 -0.824,0 -1.554,0.386 -2.191,1.16 -0.629,0.765 -0.945,1.882 -0.945,3.351 z"
         style="fill:#4040bf;fill-opacity:1;fill-rule:nonzero;stroke:none"
         id="path8863" />
      <path
         d="m 22.93,34.285 c -0.782,0.664 -1.535,1.133 -2.262,1.406 -0.719,0.274 -1.492,0.411 -2.32,0.411 -1.368,0 -2.418,-0.332 -3.153,-0.997 -0.734,-0.671 -1.101,-1.527 -1.101,-2.566 0,-0.609 0.136,-1.164 0.41,-1.664 0.281,-0.508 0.644,-0.914 1.09,-1.219 0.453,-0.304 0.961,-0.535 1.523,-0.691 0.414,-0.11 1.039,-0.215 1.875,-0.317 1.703,-0.203 2.957,-0.445 3.762,-0.726 0.008,-0.289 0.012,-0.473 0.012,-0.551 0,-0.859 -0.2,-1.465 -0.598,-1.816 -0.539,-0.477 -1.34,-0.715 -2.402,-0.715 -0.993,0 -1.727,0.176 -2.203,0.527 -0.469,0.344 -0.817,0.957 -1.043,1.84 l -2.063,-0.281 c 0.188,-0.883 0.496,-1.594 0.926,-2.133 0.43,-0.547 1.051,-0.965 1.863,-1.254 0.813,-0.297 1.754,-0.445 2.824,-0.445 1.063,0 1.926,0.125 2.59,0.375 0.664,0.25 1.153,0.566 1.465,0.949 0.313,0.375 0.531,0.852 0.656,1.43 0.071,0.359 0.106,1.007 0.106,1.945 v 2.812 c 0,1.961 0.043,3.204 0.129,3.727 0.093,0.516 0.273,1.012 0.539,1.488 h -2.203 c -0.219,-0.437 -0.36,-0.949 -0.422,-1.535 z m -0.176,-4.711 c -0.766,0.313 -1.914,0.578 -3.445,0.797 -0.868,0.125 -1.481,0.266 -1.84,0.422 -0.36,0.156 -0.637,0.387 -0.832,0.691 -0.196,0.297 -0.293,0.629 -0.293,0.996 0,0.563 0.211,1.032 0.633,1.407 0.429,0.375 1.054,0.562 1.875,0.562 0.812,0 1.535,-0.176 2.168,-0.527 0.632,-0.359 1.097,-0.848 1.394,-1.465 0.227,-0.477 0.34,-1.18 0.34,-2.109 z"
         style="fill:#000000;fill-opacity:1;fill-rule:nonzero;stroke:none"
         id="path8877" />
      <path
         d="m 29.539,40.871 h -1.512 c 2.336,-3.75 3.504,-7.504 3.504,-11.262 0,-1.468 -0.168,-2.925 -0.504,-4.371 -0.265,-1.172 -0.636,-2.297 -1.113,-3.375 -0.305,-0.703 -0.934,-1.875 -1.887,-3.515 h 1.512 c 1.469,1.961 2.555,3.929 3.258,5.906 0.601,1.703 0.902,3.484 0.902,5.344 0,2.109 -0.406,4.148 -1.219,6.117 -0.804,1.969 -1.785,3.687 -2.941,5.156 z"
         style="fill:#000000;fill-opacity:1;fill-rule:nonzero;stroke:none"
         id="path8879" />
      <path
         d="m 245.102,35.82 h -1.957 V 18.641 h 2.109 v 6.129 c 0.891,-1.118 2.027,-1.676 3.41,-1.676 0.766,0 1.488,0.156 2.168,0.469 0.688,0.304 1.25,0.738 1.688,1.3 0.445,0.555 0.793,1.227 1.043,2.016 0.25,0.789 0.375,1.633 0.375,2.531 0,2.133 -0.528,3.781 -1.583,4.945 -1.054,1.165 -2.32,1.747 -3.796,1.747 -1.469,0 -2.621,-0.614 -3.457,-1.84 z m -0.024,-6.316 c 0,1.492 0.203,2.57 0.61,3.234 0.664,1.086 1.562,1.629 2.695,1.629 0.922,0 1.719,-0.398 2.39,-1.195 0.672,-0.805 1.008,-2 1.008,-3.586 0,-1.625 -0.324,-2.824 -0.972,-3.598 -0.641,-0.773 -1.418,-1.16 -2.332,-1.16 -0.922,0 -1.719,0.402 -2.391,1.207 -0.672,0.797 -1.008,1.953 -1.008,3.469 z"
         style="fill:#000000;fill-opacity:1;fill-rule:nonzero;stroke:none"
         id="path8881" />
      <path
         d="m 257.887,40.871 h -1.512 c 2.336,-3.75 3.504,-7.504 3.504,-11.262 0,-1.468 -0.168,-2.925 -0.504,-4.371 -0.266,-1.172 -0.637,-2.297 -1.113,-3.375 -0.305,-0.703 -0.934,-1.875 -1.887,-3.515 h 1.512 c 1.468,1.961 2.554,3.929 3.258,5.906 0.601,1.703 0.902,3.484 0.902,5.344 0,2.109 -0.406,4.148 -1.219,6.117 -0.805,1.969 -1.785,3.687 -2.941,5.156 z"
         style="fill:#000000;fill-opacity:1;fill-rule:nonzero;stroke:none"
         id="path8883" />
    </g>
  </g>
</svg>
